FiraCode-Bold.ufo
<glyph name="exclam" format="2">
  <advance width="1200"/>
  <unicode hex="0021"/>
  <outline>
    <contour>
      <point x="768" y="1386" type="line"/>
      <point x="432" y="1386" type="line"/>
      <point x="473" y="510" type="line"/>
      <point x="728" y="510" type="line"/>
    </contour>
    <contour>
      <point x="600" y="328" type="curve" smooth="yes"/>
      <point x="501" y="328"/>
      <point x="419" y="246"/>
      <point x="419" y="147" type="curve" smooth="yes"/>
      <point x="419" y="48"/>
      <point x="501" y="-34"/>
      <point x="600" y="-34" type="curve" smooth="yes"/>
      <point x="701" y="-34"/>
      <point x="781" y="48"/>
      <point x="781" y="147" type="curve" smooth="yes"/>
      <point x="781" y="246"/>
      <point x="701" y="328"/>
    </contour>
  </outline>
</glyph>
<glyph name="quotedbl" format="2">
  <advance width="1200"/>
  <unicode hex="0022"/>
  <outline>
    <contour>
      <point x="296" y="925" type="line"/>
      <point x="520" y="925" type="line"/>
      <point x="557" y="1484" type="line"/>
      <point x="258" y="1484" type="line"/>
    </contour>
    <contour>
      <point x="678" y="925" type="line"/>
      <point x="904" y="925" type="line"/>
      <point x="942" y="1484" type="line"/>
      <point x="641" y="1484" type="line"/>
    </contour>
  </outline>
</glyph>
<glyph name="numbersign" format="2">
  <advance width="1200"/>
  <unicode hex="0023"/>
  <outline>
    <contour>
      <point x="982" y="893" type="line"/>
      <point x="1131" y="893" type="line"/>
      <point x="1131" y="1102" type="line"/>
      <point x="1010" y="1102" type="line"/>
      <point x="1048" y="1386" type="line"/>
      <point x="787" y="1386" type="line"/>
      <point x="749" y="1102" type="line"/>
      <point x="558" y="1102" type="line"/>
      <point x="597" y="1386" type="line"/>
      <point x="334" y="1386" type="line"/>
      <point x="298" y="1102" type="line"/>
      <point x="145" y="1102" type="line"/>
      <point x="145" y="893" type="line"/>
      <point x="270" y="893" type="line"/>
      <point x="218" y="497" type="line"/>
      <point x="71" y="497" type="line"/>
      <point x="71" y="289" type="line"/>
      <point x="190" y="289" type="line"/>
      <point x="154" y="0" type="line"/>
      <point x="415" y="0" type="line"/>
      <point x="453" y="289" type="line"/>
      <point x="643" y="289" type="line"/>
      <point x="605" y="0" type="line"/>
      <point x="866" y="0" type="line"/>
      <point x="904" y="289" type="line"/>
      <point x="1057" y="289" type="line"/>
      <point x="1057" y="497" type="line"/>
      <point x="932" y="497" type="line"/>
    </contour>
    <contour>
      <point x="479" y="497" type="line"/>
      <point x="531" y="893" type="line"/>
      <point x="721" y="893" type="line"/>
      <point x="669" y="497" type="line"/>
    </contour>
  </outline>
</glyph>
<glyph name="asterisk" format="2">
  <advance width="1200"/>
  <unicode hex="002A"/>
  <outline>
    <contour>
      <point x="450" y="1185" type="line"/>
      <point x="750" y="1185" type="line"/>
      <point x="707" y="808" type="line"/>
      <point x="1052" y="966" type="line"/>
      <point x="1145" y="681" type="line"/>
      <point x="772" y="606" type="line"/>
      <point x="1028" y="325" type="line"/>
      <point x="787" y="151" type="line"/>
      <point x="600" y="479" type="line"/>
      <point x="413" y="151" type="line"/>
      <point x="172" y="325" type="line"/>
      <point x="428" y="606" type="line"/>
      <point x="55" y="681" type="line"/>
      <point x="148" y="966" type="line"/>
      <point x="493" y="808" type="line"/>
    </contour>
  </outline>
</glyph>
<glyph name="B" format="2">
  <advance width="1200"/>
  <unicode hex="0042"/>
  <anchor x="600" y="0" name="bottom"/>
  <anchor x="600" y="1386" name="top"/>
  <outline>
    <contour>
      <point x="804" y="419" type="curve" smooth="yes"/>
      <point x="804" y="268"/>
      <point x="689" y="239"/>
      <point x="561" y="239" type="curve" smooth="yes"/>
      <point x="440" y="239" type="line"/>
      <point x="440" y="613" type="line"/>
      <point x="575" y="613" type="line" smooth="yes"/>
      <point x="713" y="613"/>
      <point x="804" y="565"/>
    </contour>
    <contour>
      <point x="752" y="999" type="curve" smooth="yes"/>
      <point x="752" y="881"/>
      <point x="692" y="833"/>
      <point x="551" y="833" type="curve" smooth="yes"/>
      <point x="440" y="833" type="line"/>
      <point x="440" y="1154" type="line"/>
      <point x="541" y="1154" type="line" smooth="yes"/>
      <point x="685" y="1154"/>
      <point x="752" y="1108"/>
    </contour>
    <contour>
      <point x="1142" y="406" type="curve" smooth="yes"/>
      <point x="1142" y="628"/>
      <point x="976" y="710"/>
      <point x="828" y="734" type="curve"/>
      <point x="964" y="768"/>
      <point x="1082" y="866"/>
      <point x="1082" y="1032" type="curve" smooth="yes"/>
      <point x="1082" y="1302"/>
      <point x="836" y="1386"/>
      <point x="551" y="1386" type="curve" smooth="yes"/>
      <point x="112" y="1386" type="line"/>
      <point x="112" y="0" type="line"/>
      <point x="572" y="0" type="line" smooth="yes"/>
      <point x="872" y="0"/>
      <point x="1142" y="86"/>
    </contour>
  </outline>
</glyph>
<glyph name="O" format="2">
  <advance width="1200"/>
  <unicode hex="004F"/>
  <anchor x="600" y="0" name="bottom"/>
  <anchor x="600" y="1386" name="top"/>
  <anchor x="189" y="1386" name="topleft"/>
  <outline>
    <contour>
      <point x="1155" y="694" type="curve" smooth="yes"/>
      <point x="1155" y="1143"/>
      <point x="963" y="1421"/>
      <point x="600" y="1421" type="curve" smooth="yes"/>
      <point x="237" y="1421"/>
      <point x="45" y="1133"/>
      <point x="45" y="694" type="curve" smooth="yes"/>
      <point x="45" y="244"/>
      <point x="237" y="-34"/>
      <point x="600" y="-34" type="curve" smooth="yes"/>
      <point x="963" y="-34"/>
      <point x="1155" y="254"/>
    </contour>
    <contour>
      <point x="819" y="694" type="curve" smooth="yes"/>
      <point x="819" y="357"/>
      <point x="760" y="206"/>
      <point x="600" y="206" type="curve" smooth="yes"/>
      <point x="446" y="206"/>
      <point x="381" y="353"/>
      <point x="381" y="694" type="curve" smooth="yes"/>
      <point x="381" y="1034"/>
      <point x="444" y="1182"/>
      <point x="600" y="1182" type="curve" smooth="yes"/>
      <point x="756" y="1182"/>
      <point x="819" y="1035"/>
    </contour>
  </outline>
</glyph>
<glyph name="h" format="2">
  <advance width="1200"/>
  <unicode hex="0068"/>
  <anchor x="600" y="0" name="bottom"/>
  <anchor x="600" y="532" name="center"/>
  <anchor x="600" y="1484" name="top"/>
  <outline>
    <contour>
      <point x="456" y="1515" type="line"/>
      <point x="140" y="1484" type="line"/>
      <point x="140" y="0" type="line"/>
      <point x="456" y="0" type="line"/>
      <point x="456" y="735" type="line"/>
      <point x="516" y="815"/>
      <point x="575" y="864"/>
      <point x="642" y="864" type="curve" smooth="yes"/>
      <point x="720" y="864"/>
      <point x="744" y="820"/>
      <point x="744" y="692" type="curve" smooth="yes"/>
      <point x="744" y="0" type="line"/>
      <point x="1060" y="0" type="line"/>
      <point x="1060" y="780" type="line" smooth="yes"/>
      <point x="1060" y="981"/>
      <point x="957" y="1097"/>
      <point x="768" y="1097" type="curve" smooth="yes"/>
      <point x="650" y="1097"/>
      <point x="545" y="1051"/>
      <point x="456" y="957" type="curve"/>
    </contour>
  </outline>
</glyph>
<glyph name="i" format="2">
  <advance width="1200"/>
  <unicode hex="0069"/>
  <anchor x="600" y="0" name="bottom"/>
  <outline>
    <contour>
      <point x="789" y="1062" type="line"/>
      <point x="182" y="1062" type="line"/>
      <point x="182" y="846" type="line"/>
      <point x="473" y="846" type="line"/>
      <point x="473" y="216" type="line"/>
      <point x="172" y="216" type="line"/>
      <point x="172" y="0" type="line"/>
      <point x="1059" y="0" type="line"/>
      <point x="1059" y="216" type="line"/>
      <point x="789" y="216" type="line"/>
    </contour>
    <contour>
      <point x="598" y="1618" type="curve" smooth="yes"/>
      <point x="487" y="1618"/>
      <point x="410" y="1541"/>
      <point x="410" y="1440" type="curve" smooth="yes"/>
      <point x="410" y="1339"/>
      <point x="487" y="1261"/>
      <point x="598" y="1261" type="curve" smooth="yes"/>
      <point x="707" y="1261"/>
      <point x="784" y="1339"/>
      <point x="784" y="1440" type="curve" smooth="yes"/>
      <point x="784" y="1541"/>
      <point x="707" y="1618"/>
    </contour>
  </outline>
</glyph>
<glyph name="l" format="2">
  <advance width="1200"/>
  <unicode hex="006C"/>
  <anchor x="710" y="0" name="bottom"/>
  <anchor x="1136" y="766" name="center"/>
  <anchor x="512" y="1484" name="top"/>
  <anchor x="754" y="1484" name="topright"/>
  <outline>
    <contour>
      <point x="694" y="1484" type="line"/>
      <point x="65" y="1484" type="line"/>
      <point x="65" y="1268" type="line"/>
      <point x="378" y="1268" type="line"/>
      <point x="378" y="373" type="line" smooth="yes"/>
      <point x="378" y="125"/>
      <point x="494" y="-34"/>
      <point x="750" y="-34" type="curve" smooth="yes"/>
      <point x="885" y="-34"/>
      <point x="985" y="-2"/>
      <point x="1057" y="36" type="curve"/>
      <point x="981" y="247" type="line"/>
      <point x="937" y="229"/>
      <point x="885" y="215"/>
      <point x="831" y="215" type="curve" smooth="yes"/>
      <point x="746" y="215"/>
      <point x="694" y="248"/>
      <point x="694" y="334" type="curve" smooth="yes"/>
    </contour>
  </outline>
</glyph>
<glyph name="m" format="2">
  <advance width="1200"/>
  <unicode hex="006D"/>
  <anchor x="600" y="0" name="bottom"/>
  <anchor x="600" y="1062" name="top"/>
  <outline>
    <contour>
      <point x="925" y="1097" type="curve" smooth="yes"/>
      <point x="831" y="1097"/>
      <point x="755" y="1045"/>
      <point x="691" y="971" type="curve"/>
      <point x="667" y="1058"/>
      <point x="608" y="1097"/>
      <point x="528" y="1097" type="curve" smooth="yes"/>
      <point x="434" y="1097"/>
      <point x="372" y="1049"/>
      <point x="306" y="959" type="curve"/>
      <point x="285" y="1062" type="line"/>
      <point x="53" y="1062" type="line"/>
      <point x="53" y="0" type="line"/>
      <point x="328" y="0" type="line"/>
      <point x="328" y="783" type="line"/>
      <point x="370" y="836"/>
      <point x="405" y="852"/>
      <point x="438" y="852" type="curve" smooth="yes"/>
      <point x="481" y="852"/>
      <point x="491" y="824"/>
      <point x="491" y="750" type="curve" smooth="yes"/>
      <point x="491" y="0" type="line"/>
      <point x="713" y="0" type="line"/>
      <point x="713" y="783" type="line"/>
      <point x="755" y="836"/>
      <point x="790" y="852"/>
      <point x="823" y="852" type="curve" smooth="yes"/>
      <point x="866" y="852"/>
      <point x="876" y="824"/>
      <point x="876" y="750" type="curve" smooth="yes"/>
      <point x="876" y="0" type="line"/>
      <point x="1147" y="0" type="line"/>
      <point x="1147" y="786" type="line" smooth="yes"/>
      <point x="1147" y="1005"/>
      <point x="1076" y="1097"/>
    </contour>
  </outline>
</glyph>
<glyph name="u" format="2">
  <advance width="1200"/>
  <unicode hex="0075"/>
  <anchor x="1080" y="0" name="ogonek"/>
  <anchor x="600" y="1062" name="top"/>
  <outline>
    <contour>
      <point x="456" y="1062" type="line"/>
      <point x="140" y="1062" type="line"/>
      <point x="140" y="296" type="line" smooth="yes"/>
      <point x="140" y="94"/>
      <point x="238" y="-34"/>
      <point x="444" y="-34" type="curve" smooth="yes"/>
      <point x="572" y="-34"/>
      <point x="698" y="20"/>
      <point x="770" y="124" type="curve"/>
      <point x="784" y="0" type="line"/>
      <point x="1060" y="0" type="line"/>
      <point x="1060" y="1062" type="line"/>
      <point x="744" y="1062" type="line"/>
      <point x="744" y="315" type="line"/>
      <point x="700" y="244"/>
      <point x="629" y="200"/>
      <point x="564" y="200" type="curve" smooth="yes"/>
      <point x="496" y="200"/>
      <point x="456" y="232"/>
      <point x="456" y="335" type="curve" smooth="yes"/>
    </contour>
  </outline>
</glyph>
<glyph name="braceright" format="2">
  <advance width="1200"/>
  <unicode hex="007D"/>
  <outline>
    <contour>
      <point x="267" y="1680" type="curve"/>
      <point x="267" y="1460" type="line"/>
      <point x="388" y="1460"/>
      <point x="463" y="1434"/>
      <point x="453" y="1333" type="curve" smooth="yes"/>
      <point x="422" y="1038" type="line" smooth="yes"/>
      <point x="398" y="812"/>
      <point x="519" y="732"/>
      <point x="734" y="700" type="curve"/>
      <point x="531" y="670"/>
      <point x="398" y="587"/>
      <point x="422" y="362" type="curve" smooth="yes"/>
      <point x="453" y="67" type="line" smooth="yes"/>
      <point x="463" y="-34"/>
      <point x="389" y="-60"/>
      <point x="267" y="-60" type="curve"/>
      <point x="267" y="-280" type="line"/>
      <point x="635" y="-280"/>
      <point x="775" y="-183"/>
      <point x="745" y="91" type="curve" smooth="yes"/>
      <point x="715" y="375" type="line" smooth="yes"/>
      <point x="699" y="527"/>
      <point x="821" y="572"/>
      <point x="989" y="572" type="curve"/>
      <point x="989" y="828" type="line"/>
      <point x="819" y="828"/>
      <point x="699" y="873"/>
      <point x="715" y="1025" type="curve" smooth="yes"/>
      <point x="745" y="1311" type="line" smooth="yes"/>
      <point x="773" y="1581"/>
      <point x="635" y="1680"/>
    </contour>
  </outline>
</glyph>
<glyph name="asciitilde" format="2">
  <advance width="1200"/>
  <unicode hex="007E"/>
  <outline>
    <contour>
      <point x="406" y="860" type="curve" smooth="yes"/>
      <point x="226" y="860"/>
      <point x="125" y="711"/>
      <point x="43" y="544" type="curve"/>
      <point x="220" y="465" type="line"/>
      <point x="272" y="561"/>
      <point x="320" y="621"/>
      <point x="398" y="621" type="curve" smooth="yes"/>
      <point x="518" y="621"/>
      <point x="602" y="421"/>
      <point x="794" y="421" type="curve" smooth="yes"/>
      <point x="972" y="421"/>
      <point x="1072" y="551"/>
      <point x="1157" y="737" type="curve"/>
      <point x="980" y="817" type="line"/>
      <point x="926" y="715"/>
      <point x="878" y="660"/>
      <point x="802" y="660" type="curve" smooth="yes"/>
      <point x="682" y="660"/>
      <point x="602" y="860"/>
    </contour>
  </outline>
</glyph>
<glyph name="cent" format="2">
  <advance width="1200"/>
  <unicode hex="00A2"/>
  <anchor x="668" y="0" name="bottomAttach"/>
  <outline>
    <contour>
      <point x="785" y="1384" type="line"/>
      <point x="559" y="1384" type="line"/>
      <point x="559" y="1082" type="line"/>
      <point x="305" y="1030"/>
      <point x="157" y="812"/>
      <point x="157" y="524" type="curve" smooth="yes"/>
      <point x="157" y="238"/>
      <point x="301" y="32"/>
      <point x="557" y="-18" type="curve"/>
      <point x="557" y="-322" type="line"/>
      <point x="785" y="-322" type="line"/>
      <point x="785" y="-24" type="line"/>
      <point x="881" y="-8"/>
      <point x="965" y="30"/>
      <point x="1043" y="92" type="curve"/>
      <point x="900" y="294" type="line"/>
      <point x="824" y="237"/>
      <point x="771" y="215"/>
      <point x="701" y="215" type="curve" smooth="yes"/>
      <point x="572" y="215"/>
      <point x="487" y="287"/>
      <point x="487" y="524" type="curve" smooth="yes"/>
      <point x="487" y="763"/>
      <point x="566" y="854"/>
      <point x="703" y="854" type="curve" smooth="yes"/>
      <point x="771" y="854"/>
      <point x="834" y="834"/>
      <point x="906" y="776" type="curve"/>
      <point x="1043" y="966" type="line"/>
      <point x="967" y="1030"/>
      <point x="881" y="1070"/>
      <point x="785" y="1085" type="curve"/>
    </contour>
  </outline>
</glyph>
<glyph name="sterling" format="2">
  <advance width="1200"/>
  <unicode hex="00A3"/>
  <outline>
    <contour>
      <point x="706" y="1421" type="curve" smooth="yes"/>
      <point x="409" y="1421"/>
      <point x="250" y="1244"/>
      <point x="250" y="1005" type="curve"/>
      <point x="250" y="803" type="line"/>
      <point x="103" y="803" type="line"/>
      <point x="103" y="639" type="line"/>
      <point x="250" y="639" type="line"/>
      <point x="250" y="495" type="line" smooth="yes"/>
      <point x="250" y="346"/>
      <point x="236" y="276"/>
      <point x="84" y="228" type="curve"/>
      <point x="84" y="0" type="line"/>
      <point x="1047" y="0" type="line"/>
      <point x="1085" y="239" type="line"/>
      <point x="434" y="239" type="line"/>
      <point x="538" y="297"/>
      <point x="562" y="384"/>
      <point x="562" y="486" type="curve" smooth="yes"/>
      <point x="562" y="639" type="line"/>
      <point x="927" y="639" type="line"/>
      <point x="927" y="803" type="line"/>
      <point x="562" y="803" type="line"/>
      <point x="562" y="997" type="line" smooth="yes"/>
      <point x="562" y="1127"/>
      <point x="624" y="1184"/>
      <point x="731" y="1184" type="curve" smooth="yes"/>
      <point x="812" y="1184"/>
      <point x="868" y="1156"/>
      <point x="922" y="1078" type="curve"/>
      <point x="1116" y="1218" type="line"/>
      <point x="1018" y="1356"/>
      <point x="887" y="1421"/>
    </contour>
  </outline>
</glyph>
<glyph name="copyright" format="2">
  <advance width="1200"/>
  <unicode hex="00A9"/>
  <outline>
    <contour>
      <point x="602" y="1517" type="curve" smooth="yes"/>
      <point x="233" y="1517"/>
      <point x="17" y="1222"/>
      <point x="17" y="849" type="curve" smooth="yes"/>
      <point x="17" y="477"/>
      <point x="221" y="184"/>
      <point x="602" y="184" type="curve" smooth="yes"/>
      <point x="971" y="184"/>
      <point x="1183" y="477"/>
      <point x="1183" y="849" type="curve" smooth="yes"/>
      <point x="1183" y="1222"/>
      <point x="971" y="1517"/>
    </contour>
    <contour>
      <point x="620" y="1244" type="curve" smooth="yes"/>
      <point x="422" y="1244"/>
      <point x="282" y="1097"/>
      <point x="282" y="851" type="curve" smooth="yes"/>
      <point x="282" y="597"/>
      <point x="412" y="455"/>
      <point x="622" y="455" type="curve" smooth="yes"/>
      <point x="722" y="455"/>
      <point x="800" y="497"/>
      <point x="862" y="555" type="curve"/>
      <point x="772" y="686" type="line"/>
      <point x="738" y="656"/>
      <point x="696" y="632"/>
      <point x="641" y="632" type="curve" smooth="yes"/>
      <point x="560" y="632"/>
      <point x="508" y="692"/>
      <point x="508" y="851" type="curve" smooth="yes"/>
      <point x="508" y="1011"/>
      <point x="565" y="1072"/>
      <point x="641" y="1072" type="curve" smooth="yes"/>
      <point x="686" y="1072"/>
      <point x="718" y="1056"/>
      <point x="754" y="1027" type="curve"/>
      <point x="852" y="1149" type="line"/>
      <point x="788" y="1214"/>
      <point x="718" y="1244"/>
    </contour>
    <contour>
      <point x="602" y="1378" type="curve" smooth="yes"/>
      <point x="892" y="1378"/>
      <point x="1018" y="1141"/>
      <point x="1018" y="849" type="curve" smooth="yes"/>
      <point x="1018" y="559"/>
      <point x="890" y="323"/>
      <point x="602" y="323" type="curve" smooth="yes"/>
      <point x="312" y="323"/>
      <point x="184" y="559"/>
      <point x="184" y="849" type="curve" smooth="yes"/>
      <point x="184" y="1141"/>
      <point x="312" y="1378"/>
    </contour>
  </outline>
</glyph>
<glyph name="logicalnot" format="2">
  <advance width="1200"/>
  <unicode hex="00AC"/>
  <outline>
    <contour>
      <point x="1034" y="758" type="line"/>
      <point x="166" y="758" type="line"/>
      <point x="166" y="515" type="line"/>
      <point x="773" y="515" type="line"/>
      <point x="773" y="208" type="line"/>
      <point x="1034" y="208" type="line"/>
    </contour>
  </outline>
</glyph>
<glyph name="Eth" format="2">
  <advance width="1200"/>
  <unicode hex="00D0"/>
  <outline>
    <contour>
      <point x="697" y="805" type="line"/>
      <point x="19" y="805" type="line"/>
      <point x="19" y="607" type="line"/>
      <point x="697" y="607" type="line"/>
    </contour>
    <component base="D" xOffset="26"/>
  </outline>
</glyph>
<glyph name="Thorn" format="2">
  <advance width="1200"/>
  <unicode hex="00DE"/>
  <anchor x="600" y="0" name="bottom"/>
  <anchor x="600" y="1386" name="top"/>
  <outline>
    <contour>
      <point x="448" y="1386" type="line"/>
      <point x="119" y="1386" type="line"/>
      <point x="119" y="0" type="line"/>
      <point x="448" y="0" type="line"/>
      <point x="448" y="233" type="line"/>
      <point x="602" y="233" type="line" smooth="yes"/>
      <point x="945" y="233"/>
      <point x="1153" y="382"/>
      <point x="1153" y="708" type="curve" smooth="yes"/>
      <point x="1153" y="1014"/>
      <point x="934" y="1162"/>
      <point x="559" y="1162" type="curve" smooth="yes"/>
      <point x="448" y="1162" type="line"/>
    </contour>
    <contour>
      <point x="567" y="928" type="line" smooth="yes"/>
      <point x="726" y="928"/>
      <point x="811" y="862"/>
      <point x="811" y="706" type="curve" smooth="yes"/>
      <point x="811" y="532"/>
      <point x="724" y="470"/>
      <point x="581" y="470" type="curve" smooth="yes"/>
      <point x="448" y="470" type="line"/>
      <point x="448" y="928" type="line"/>
    </contour>
  </outline>
</glyph>
<glyph name="divide" format="2">
  <advance width="1200"/>
  <unicode hex="00F7"/>
  <outline>
    <contour>
      <point x="1034" y="758" type="line"/>
      <point x="166" y="758" type="line"/>
      <point x="166" y="515" type="line"/>
      <point x="1034" y="515" type="line"/>
    </contour>
    <contour>
      <point x="600" y="389" type="curve" smooth="yes"/>
      <point x="499" y="389"/>
      <point x="419" y="308"/>
      <point x="419" y="209" type="curve" smooth="yes"/>
      <point x="419" y="109"/>
      <point x="499" y="28"/>
      <point x="600" y="28" type="curve" smooth="yes"/>
      <point x="701" y="28"/>
      <point x="781" y="109"/>
      <point x="781" y="209" type="curve" smooth="yes"/>
      <point x="781" y="308"/>
      <point x="701" y="389"/>
    </contour>
    <contour>
      <point x="600" y="1245" type="curve" smooth="yes"/>
      <point x="499" y="1245"/>
      <point x="419" y="1164"/>
      <point x="419" y="1065" type="curve" smooth="yes"/>
      <point x="419" y="967"/>
      <point x="499" y="886"/>
      <point x="600" y="886" type="curve" smooth="yes"/>
      <point x="701" y="886"/>
      <point x="781" y="967"/>
      <point x="781" y="1065" type="curve" smooth="yes"/>
      <point x="781" y="1164"/>
      <point x="701" y="1245"/>
    </contour>
  </outline>
</glyph>
<glyph name="thorn" format="2">
  <advance width="1200"/>
  <unicode hex="00FE"/>
  <anchor x="600" y="-443" name="bottom"/>
  <anchor x="600" y="1484" name="top"/>
  <outline>
    <contour>
      <point x="456" y="1517" type="line"/>
      <point x="140" y="1484" type="line"/>
      <point x="140" y="-443" type="line"/>
      <point x="456" y="-410" type="line"/>
      <point x="456" y="77" type="line"/>
      <point x="520" y="4"/>
      <point x="604" y="-34"/>
      <point x="708" y="-34" type="curve" smooth="yes"/>
      <point x="967" y="-34"/>
      <point x="1116" y="206"/>
      <point x="1116" y="534" type="curve" smooth="yes"/>
      <point x="1116" y="879"/>
      <point x="1005" y="1097"/>
      <point x="728" y="1097" type="curve" smooth="yes"/>
      <point x="616" y="1097"/>
      <point x="520" y="1045"/>
      <point x="456" y="955" type="curve"/>
    </contour>
    <contour>
      <point x="630" y="864" type="curve" smooth="yes"/>
      <point x="730" y="864"/>
      <point x="790" y="794"/>
      <point x="790" y="530" type="curve" smooth="yes"/>
      <point x="790" y="291"/>
      <point x="724" y="198"/>
      <point x="612" y="198" type="curve" smooth="yes"/>
      <point x="545" y="198"/>
      <point x="500" y="228"/>
      <point x="456" y="293" type="curve"/>
      <point x="456" y="741" type="line"/>
      <point x="502" y="817"/>
      <point x="557" y="864"/>
    </contour>
  </outline>
</glyph>
<glyph name="Lslash" format="2">
  <advance width="1200"/>
  <unicode hex="0141"/>
  <outline>
    <contour>
      <point x="125" y="402" type="line"/>
      <point x="900" y="884" type="line"/>
      <point x="791" y="1055" type="line"/>
      <point x="18" y="576" type="line"/>
    </contour>
    <component base="L" xOffset="29"/>
  </outline>
</glyph>
<glyph name="napostrophe" format="2">
  <advance width="1200"/>
  <unicode hex="0149"/>
  <outline>
    <contour>
      <point x="118" y="1527" type="curve" smooth="yes"/>
      <point x="31" y="1527"/>
      <point x="-35" y="1458"/>
      <point x="-35" y="1378" type="curve" smooth="yes"/>
      <point x="-35" y="1321"/>
      <point x="-7" y="1281"/>
      <point x="29" y="1253" type="curve"/>
      <point x="-14" y="1070" type="line"/>
      <point x="143" y="1070" type="line"/>
      <point x="225" y="1230" type="line" smooth="yes"/>
      <point x="255" y="1289"/>
      <point x="271" y="1327"/>
      <point x="271" y="1378" type="curve" smooth="yes"/>
      <point x="271" y="1464"/>
      <point x="206" y="1527"/>
    </contour>
    <component base="n" xOffset="39"/>
  </outline>
</glyph>
<glyph name="oe" format="2">
  <advance width="1200"/>
  <unicode hex="0153"/>
  <outline>
    <contour>
      <point x="877" y="1097" type="curve" smooth="yes"/>
      <point x="744" y="1097"/>
      <point x="662" y="1029"/>
      <point x="610" y="930" type="curve"/>
      <point x="562" y="1035"/>
      <point x="488" y="1097"/>
      <point x="352" y="1097" type="curve" smooth="yes"/>
      <point x="96" y="1097"/>
      <point x="-16" y="869"/>
      <point x="-16" y="532" type="curve" smooth="yes"/>
      <point x="-16" y="175"/>
      <point x="98" y="-34"/>
      <point x="352" y="-34" type="curve" smooth="yes"/>
      <point x="482" y="-34"/>
      <point x="556" y="27"/>
      <point x="604" y="125" type="curve"/>
      <point x="668" y="25"/>
      <point x="768" y="-34"/>
      <point x="908" y="-34" type="curve" smooth="yes"/>
      <point x="1038" y="-34"/>
      <point x="1133" y="14"/>
      <point x="1211" y="80" type="curve"/>
      <point x="1093" y="239" type="line"/>
      <point x="1034" y="197"/>
      <point x="986" y="174"/>
      <point x="924" y="174" type="curve" smooth="yes"/>
      <point x="813" y="174"/>
      <point x="753" y="259"/>
      <point x="737" y="452" type="curve"/>
      <point x="1207" y="452" type="line"/>
      <point x="1210" y="484"/>
      <point x="1212" y="516"/>
      <point x="1212" y="552" type="curve" smooth="yes"/>
      <point x="1212" y="903"/>
      <point x="1122" y="1097"/>
    </contour>
    <contour>
      <point x="364" y="864" type="curve" smooth="yes"/>
      <point x="449" y="864"/>
      <point x="481" y="775"/>
      <point x="481" y="534" type="curve" smooth="yes"/>
      <point x="481" y="277"/>
      <point x="449" y="198"/>
      <point x="364" y="198" type="curve" smooth="yes"/>
      <point x="277" y="198"/>
      <point x="246" y="281"/>
      <point x="246" y="532" type="curve" smooth="yes"/>
      <point x="246" y="775"/>
      <point x="277" y="864"/>
    </contour>
    <contour>
      <point x="865" y="899" type="curve" smooth="yes"/>
      <point x="952" y="899"/>
      <point x="972" y="812"/>
      <point x="974" y="623" type="curve"/>
      <point x="735" y="623" type="line"/>
      <point x="745" y="832"/>
      <point x="786" y="899"/>
    </contour>
  </outline>
</glyph>
<glyph name="circumflex" format="2">
  <advance width="1200"/>
  <unicode hex="02C6"/>
  <anchor x="600" y="1062" name="_top"/>
  <outline>
    <contour>
      <point x="335" y="1223" type="line"/>
      <point x="600" y="1411" type="line"/>
      <point x="866" y="1223" type="line"/>
      <point x="979" y="1352" type="line"/>
      <point x="697" y="1631" type="line"/>
      <point x="503" y="1631" type="line"/>
      <point x="219" y="1352" type="line"/>
    </contour>
  </outline>
</glyph>
<glyph name="breve" format="2">
  <advance width="1200"/>
  <unicode hex="02D8"/>
  <anchor x="600" y="1062" name="_top"/>
  <outline>
    <contour>
      <point x="600" y="1223" type="curve" smooth="yes"/>
      <point x="819" y="1223"/>
      <point x="929" y="1396"/>
      <point x="945" y="1573" type="curve"/>
      <point x="770" y="1603" type="line"/>
      <point x="746" y="1507"/>
      <point x="692" y="1441"/>
      <point x="600" y="1441" type="curve" smooth="yes"/>
      <point x="508" y="1441"/>
      <point x="454" y="1507"/>
      <point x="430" y="1603" type="curve"/>
      <point x="255" y="1573" type="line"/>
      <point x="271" y="1396"/>
      <point x="379" y="1223"/>
    </contour>
  </outline>
</glyph>
<glyph name="tilde" format="2">
  <advance width="1200"/>
  <unicode hex="02DC"/>
  <anchor x="600" y="1062" name="_top"/>
  <outline>
    <contour>
      <point x="712" y="1269" type="curve" smooth="yes"/>
      <point x="831" y="1269"/>
      <point x="921" y="1370"/>
      <point x="973" y="1503" type="curve"/>
      <point x="814" y="1581" type="line"/>
      <point x="780" y="1523"/>
      <point x="754" y="1495"/>
      <point x="710" y="1495" type="curve" smooth="yes"/>
      <point x="642" y="1495"/>
      <point x="600" y="1585"/>
      <point x="478" y="1585" type="curve" smooth="yes"/>
      <point x="357" y="1585"/>
      <point x="269" y="1476"/>
      <point x="219" y="1349" type="curve"/>
      <point x="378" y="1271" type="line"/>
      <point x="410" y="1329"/>
      <point x="434" y="1359"/>
      <point x="484" y="1359" type="curve" smooth="yes"/>
      <point x="550" y="1359"/>
      <point x="596" y="1269"/>
    </contour>
  </outline>
</glyph>
<glyph name="overlinecomb" format="2">
  <unicode hex="0305"/>
  <anchor x="600" y="1062" name="_top"/>
  <outline>
    <contour>
      <point x="1065" y="1240" type="line"/>
      <point x="1065" y="1460" type="line"/>
      <point x="135" y="1460" type="line"/>
      <point x="135" y="1240" type="line"/>
    </contour>
  </outline>
</glyph>
<glyph name="brevecomb" format="2">
  <unicode hex="0306"/>
  <anchor x="600" y="1062" name="_top"/>
  <outline>
    <contour>
      <point x="600" y="1178" type="curve" smooth="yes"/>
      <point x="820" y="1178"/>
      <point x="927" y="1315"/>
      <point x="945" y="1486" type="curve"/>
      <point x="770" y="1518" type="line"/>
      <point x="744" y="1434"/>
      <point x="692" y="1397"/>
      <point x="600" y="1397" type="curve" smooth="yes"/>
      <point x="508" y="1397"/>
      <point x="456" y="1434"/>
      <point x="430" y="1518" type="curve"/>
      <point x="255" y="1486" type="line"/>
      <point x="275" y="1315"/>
      <point x="380" y="1178"/>
    </contour>
  </outline>
</glyph>
<glyph name="ypogegrammenicomb" format="2">
  <unicode hex="0345"/>
  <anchor x="470" y="0" name="_bottom"/>
  <anchor x="624" y="-407" name="bottom"/>
  <outline>
    <contour>
      <point x="622" y="-407" type="curve" smooth="yes"/>
      <point x="725" y="-407"/>
      <point x="793" y="-373"/>
      <point x="845" y="-333" type="curve"/>
      <point x="763" y="-197" type="line"/>
      <point x="729" y="-217"/>
      <point x="701" y="-227"/>
      <point x="661" y="-227" type="curve" smooth="yes"/>
      <point x="607" y="-227"/>
      <point x="583" y="-199"/>
      <point x="583" y="-147" type="curve" smooth="yes"/>
      <point x="583" y="-84" type="line"/>
      <point x="357" y="-84" type="line"/>
      <point x="357" y="-153" type="line" smooth="yes"/>
      <point x="357" y="-302"/>
      <point x="449" y="-407"/>
    </contour>
  </outline>
</glyph>
<glyph name="Heta" format="2">
  <advance width="1200"/>
  <unicode hex="0370"/>
  <anchor x="600" y="0" name="bottom"/>
  <anchor x="600" y="1386" name="top"/>
  <outline>
    <contour>
      <point x="1009" y="588" type="line"/>
      <point x="1009" y="852" type="line"/>
      <point x="519" y="852" type="line"/>
      <point x="519" y="1386" type="line"/>
      <point x="193" y="1386" type="line"/>
      <point x="193" y="0" type="line"/>
      <point x="519" y="0" type="line"/>
      <point x="519" y="588" type="line"/>
    </contour>
  </outline>
</glyph>
<glyph name="heta" format="2">
  <advance width="1200"/>
  <unicode hex="0371"/>
  <anchor x="600" y="0" name="bottom"/>
  <anchor x="600" y="1062" name="top"/>
  <outline>
    <contour>
      <point x="1065" y="419" type="line"/>
      <point x="1065" y="663" type="line"/>
      <point x="415" y="663" type="line"/>
      <point x="415" y="419" type="line"/>
    </contour>
    <contour>
      <point x="469" y="1090" type="curve"/>
      <point x="177" y="1050" type="line"/>
      <point x="199" y="982"/>
      <point x="221" y="878"/>
      <point x="221" y="764" type="curve" smooth="yes"/>
      <point x="221" y="0" type="line"/>
      <point x="537" y="0" type="line"/>
      <point x="537" y="690" type="line" smooth="yes"/>
      <point x="537" y="912"/>
      <point x="507" y="1014"/>
    </contour>
  </outline>
</glyph>
<glyph name="reversedlunatesigmasymbol" format="2">
  <advance width="1200"/>
  <unicode hex="037B"/>
  <anchor x="459" y="530" name="center"/>
  <outline>
    <contour>
      <point x="514" y="-34" type="curve" smooth="yes"/>
      <point x="857" y="-34"/>
      <point x="1063" y="192"/>
      <point x="1063" y="524" type="curve" smooth="yes"/>
      <point x="1063" y="876"/>
      <point x="887" y="1097"/>
      <point x="536" y="1097" type="curve" smooth="yes"/>
      <point x="363" y="1097"/>
      <point x="242" y="1052"/>
      <point x="120" y="964" type="curve"/>
      <point x="256" y="774" type="line"/>
      <point x="342" y="824"/>
      <point x="420" y="854"/>
      <point x="517" y="854" type="curve" smooth="yes"/>
      <point x="668" y="854"/>
      <point x="733" y="763"/>
      <point x="733" y="524" type="curve" smooth="yes"/>
      <point x="733" y="289"/>
      <point x="632" y="215"/>
      <point x="497" y="215" type="curve" smooth="yes"/>
      <point x="410" y="215"/>
      <point x="336" y="253"/>
      <point x="260" y="305" type="curve"/>
      <point x="120" y="106" type="line"/>
      <point x="214" y="26"/>
      <point x="349" y="-34"/>
    </contour>
  </outline>
</glyph>
<glyph name="Lambda" format="2">
  <advance width="1200"/>
  <unicode hex="039B"/>
  <outline>
    <contour>
      <point x="800" y="1386" type="line"/>
      <point x="402" y="1386" type="line"/>
      <point x="-14" y="0" type="line"/>
      <point x="331" y="0" type="line"/>
      <point x="598" y="1142" type="line"/>
      <point x="863" y="0" type="line"/>
      <point x="1214" y="0" type="line"/>
    </contour>
  </outline>
</glyph>
<glyph name="Omega" format="2">
  <advance width="1200"/>
  <unicode hex="03A9"/>
  <anchor x="600" y="0" name="bottom"/>
  <anchor x="600" y="1386" name="top"/>
  <anchor x="194" y="1386" name="topleft"/>
  <outline>
    <contour>
      <point x="600" y="1180" type="curve" smooth="yes"/>
      <point x="752" y="1180"/>
      <point x="819" y="1042"/>
      <point x="819" y="754" type="curve" smooth="yes"/>
      <point x="819" y="452"/>
      <point x="774" y="298"/>
      <point x="654" y="229" type="curve"/>
      <point x="654" y="0" type="line"/>
      <point x="1133" y="0" type="line"/>
      <point x="1133" y="233" type="line"/>
      <point x="899" y="233" type="line"/>
      <point x="1074" y="327"/>
      <point x="1155" y="503"/>
      <point x="1155" y="754" type="curve" smooth="yes"/>
      <point x="1155" y="1138"/>
      <point x="957" y="1421"/>
      <point x="600" y="1421" type="curve" smooth="yes"/>
      <point x="243" y="1421"/>
      <point x="45" y="1138"/>
      <point x="45" y="754" type="curve" smooth="yes"/>
      <point x="45" y="503"/>
      <point x="124" y="325"/>
      <point x="299" y="233" type="curve"/>
      <point x="67" y="233" type="line"/>
      <point x="67" y="0" type="line"/>
      <point x="546" y="0" type="line"/>
      <point x="546" y="229" type="line"/>
      <point x="428" y="300"/>
      <point x="381" y="452"/>
      <point x="381" y="754" type="curve" smooth="yes"/>
      <point x="381" y="1042"/>
      <point x="448" y="1180"/>
    </contour>
  </outline>
</glyph>
<glyph name="beta" format="2">
  <advance width="1200"/>
  <unicode hex="03B2"/>
  <anchor x="600" y="-443" name="bottom"/>
  <anchor x="600" y="1484" name="top"/>
  <outline>
    <contour>
      <point x="568" y="1527" type="curve" smooth="yes"/>
      <point x="303" y="1527"/>
      <point x="106" y="1373"/>
      <point x="106" y="1098" type="curve" smooth="yes"/>
      <point x="106" y="-453" type="line"/>
      <point x="424" y="-400" type="line"/>
      <point x="424" y="1115" type="line" smooth="yes"/>
      <point x="424" y="1237"/>
      <point x="479" y="1294"/>
      <point x="568" y="1294" type="curve" smooth="yes"/>
      <point x="656" y="1294"/>
      <point x="705" y="1230"/>
      <point x="705" y="1105" type="curve" smooth="yes"/>
      <point x="705" y="971"/>
      <point x="650" y="903"/>
      <point x="568" y="903" type="curve" smooth="yes"/>
      <point x="529" y="903" type="line"/>
      <point x="509" y="677" type="line"/>
      <point x="574" y="677" type="line" smooth="yes"/>
      <point x="706" y="677"/>
      <point x="807" y="602"/>
      <point x="807" y="439" type="curve" smooth="yes"/>
      <point x="807" y="267"/>
      <point x="714" y="196"/>
      <point x="599" y="196" type="curve" smooth="yes"/>
      <point x="500" y="196"/>
      <point x="429" y="236"/>
      <point x="353" y="294" type="curve"/>
      <point x="281" y="169" type="line"/>
      <point x="398" y="38"/>
      <point x="536" y="-40"/>
      <point x="685" y="-40" type="curve" smooth="yes"/>
      <point x="964" y="-40"/>
      <point x="1133" y="150"/>
      <point x="1133" y="420" type="curve" smooth="yes"/>
      <point x="1133" y="722"/>
      <point x="919" y="796"/>
      <point x="760" y="812" type="curve"/>
      <point x="941" y="857"/>
      <point x="1027" y="963"/>
      <point x="1027" y="1134" type="curve" smooth="yes"/>
      <point x="1027" y="1354"/>
      <point x="855" y="1527"/>
    </contour>
  </outline>
</glyph>
<glyph name="lambda" format="2">
  <advance width="1200"/>
  <unicode hex="03BB"/>
  <anchor x="600" y="0" name="bottom"/>
  <anchor x="600" y="1484" name="top"/>
  <outline>
    <contour>
      <point x="406" y="1062" type="line"/>
      <point x="53" y="39" type="line"/>
      <point x="365" y="-34" type="line"/>
      <point x="588" y="838" type="line"/>
      <point x="657" y="400"/>
      <point x="730" y="172"/>
      <point x="868" y="-34" type="curve"/>
      <point x="1180" y="65" type="line"/>
      <point x="1038" y="245"/>
      <point x="946" y="471"/>
      <point x="839" y="912" type="curve" smooth="yes"/>
      <point x="738" y="1332"/>
      <point x="604" y="1466"/>
      <point x="207" y="1516" type="curve"/>
      <point x="169" y="1300" type="line"/>
      <point x="383" y="1270"/>
      <point x="451" y="1215"/>
      <point x="509" y="1062" type="curve"/>
    </contour>
  </outline>
</glyph>
<glyph name="sigma" format="2">
  <advance width="1200"/>
  <unicode hex="03C3"/>
  <anchor x="600" y="0" name="bottom"/>
  <anchor x="600" y="1062" name="top"/>
  <outline>
    <contour>
      <point x="634" y="1080" type="curve" smooth="yes"/>
      <point x="268" y="1080"/>
      <point x="84" y="860"/>
      <point x="84" y="526" type="curve" smooth="yes"/>
      <point x="84" y="173"/>
      <point x="277" y="-34"/>
      <point x="600" y="-34" type="curve" smooth="yes"/>
      <point x="923" y="-34"/>
      <point x="1116" y="177"/>
      <point x="1116" y="509" type="curve" smooth="yes"/>
      <point x="1116" y="694"/>
      <point x="1040" y="822"/>
      <point x="916" y="895" type="curve"/>
      <point x="677" y="884" type="line"/>
      <point x="740" y="837"/>
      <point x="788" y="750"/>
      <point x="788" y="526" type="curve" smooth="yes"/>
      <point x="788" y="295"/>
      <point x="727" y="198"/>
      <point x="600" y="198" type="curve" smooth="yes"/>
      <point x="471" y="198"/>
      <point x="410" y="295"/>
      <point x="410" y="526" type="curve" smooth="yes"/>
      <point x="410" y="820"/>
      <point x="514" y="878"/>
      <point x="727" y="872" type="curve"/>
      <point x="900" y="872" type="line"/>
      <point x="1155" y="852" type="line"/>
      <point x="1155" y="1062" type="line"/>
      <point x="1000" y="1072"/>
      <point x="794" y="1080"/>
    </contour>
  </outline>
</glyph>
<glyph name="phi" format="2">
  <advance width="1200"/>
  <unicode hex="03C6"/>
  <anchor x="600" y="-443" name="bottom"/>
  <anchor x="600" y="1062" name="top"/>
  <outline>
    <contour>
      <point x="800" y="1097" type="curve" smooth="yes"/>
      <point x="566" y="1097"/>
      <point x="469" y="939"/>
      <point x="469" y="648" type="curve" smooth="yes"/>
      <point x="469" y="168" type="line"/>
      <point x="341" y="200"/>
      <point x="302" y="307"/>
      <point x="302" y="524" type="curve" smooth="yes"/>
      <point x="302" y="691"/>
      <point x="336" y="859"/>
      <point x="401" y="1062" type="curve"/>
      <point x="141" y="1062" type="line"/>
      <point x="87" y="912"/>
      <point x="37" y="716"/>
      <point x="37" y="480" type="curve" smooth="yes"/>
      <point x="37" y="190"/>
      <point x="163" y="8"/>
      <point x="469" y="-26" type="curve"/>
      <point x="469" y="-443" type="line"/>
      <point x="711" y="-420" type="line"/>
      <point x="711" y="-26" type="line"/>
      <point x="993" y="8"/>
      <point x="1163" y="174"/>
      <point x="1163" y="540" type="curve" smooth="yes"/>
      <point x="1163" y="902"/>
      <point x="1061" y="1097"/>
    </contour>
    <contour>
      <point x="796" y="897" type="curve" smooth="yes"/>
      <point x="873" y="897"/>
      <point x="890" y="803"/>
      <point x="890" y="538" type="curve" smooth="yes"/>
      <point x="890" y="309"/>
      <point x="841" y="198"/>
      <point x="711" y="168" type="curve"/>
      <point x="711" y="647" type="line" smooth="yes"/>
      <point x="711" y="815"/>
      <point x="717" y="897"/>
    </contour>
  </outline>
</glyph>
<glyph name="omega" format="2">
  <advance width="1200"/>
  <unicode hex="03C9"/>
  <anchor x="598" y="0" name="bottom"/>
  <anchor x="600" y="1062" name="top"/>
  <outline>
    <contour>
      <point x="1065" y="1062" type="curve"/>
      <point x="818" y="1062" type="line"/>
      <point x="865" y="867"/>
      <point x="894" y="687"/>
      <point x="894" y="501" type="curve" smooth="yes"/>
      <point x="894" y="291"/>
      <point x="882" y="198"/>
      <point x="805" y="198" type="curve" smooth="yes"/>
      <point x="729" y="198"/>
      <point x="715" y="266"/>
      <point x="715" y="478" type="curve" smooth="yes"/>
      <point x="715" y="724" type="line"/>
      <point x="487" y="685" type="line"/>
      <point x="487" y="468" type="line" smooth="yes"/>
      <point x="487" y="268"/>
      <point x="472" y="198"/>
      <point x="401" y="198" type="curve" smooth="yes"/>
      <point x="326" y="198"/>
      <point x="306" y="291"/>
      <point x="306" y="501" type="curve" smooth="yes"/>
      <point x="306" y="689"/>
      <point x="333" y="865"/>
      <point x="382" y="1062" type="curve"/>
      <point x="134" y="1062" type="line"/>
      <point x="81" y="889"/>
      <point x="29" y="681"/>
      <point x="29" y="484" type="curve" smooth="yes"/>
      <point x="29" y="137"/>
      <point x="140" y="-34"/>
      <point x="342" y="-34" type="curve" smooth="yes"/>
      <point x="474" y="-34"/>
      <point x="554" y="27"/>
      <point x="598" y="175" type="curve"/>
      <point x="639" y="23"/>
      <point x="725" y="-34"/>
      <point x="865" y="-34" type="curve" smooth="yes"/>
      <point x="1065" y="-34"/>
      <point x="1171" y="141"/>
      <point x="1171" y="484" type="curve" smooth="yes"/>
      <point x="1171" y="681"/>
      <point x="1119" y="885"/>
    </contour>
  </outline>
</glyph>
<glyph name="KaiSymbol" format="2">
  <advance width="1200"/>
  <unicode hex="03CF"/>
  <anchor x="600" y="-443" name="bottom"/>
  <outline>
    <contour>
      <point x="829" y="251" type="line"/>
      <point x="829" y="0" type="line"/>
      <point x="1164" y="0" type="line"/>
      <point x="1164" y="251" type="line"/>
    </contour>
    <contour>
      <point x="429" y="0" type="line"/>
      <point x="429" y="1386" type="line"/>
      <point x="101" y="1386" type="line"/>
      <point x="101" y="0" type="line"/>
    </contour>
    <contour>
      <point x="439" y="740" type="line"/>
      <point x="779" y="0" type="line"/>
      <point x="1149" y="0" type="line"/>
      <point x="769" y="764" type="line"/>
      <point x="1111" y="1386" type="line"/>
      <point x="777" y="1386" type="line"/>
    </contour>
    <component base="hookHELPER.case" xOffset="374"/>
  </outline>
</glyph>
<glyph name="koppaArchaic" format="2">
  <advance width="1200"/>
  <unicode hex="03D9"/>
  <anchor x="600" y="-443" name="bottom"/>
  <outline>
    <contour>
      <point x="754" y="8" type="line"/>
      <point x="446" y="8" type="line"/>
      <point x="446" y="-443" type="line"/>
      <point x="754" y="-410" type="line"/>
    </contour>
    <component base="o"/>
  </outline>
</glyph>
<glyph name="Koppa" format="2">
  <advance width="1200"/>
  <unicode hex="03DE"/>
  <anchor x="600" y="0" name="bottom"/>
  <anchor x="600" y="1386" name="top"/>
  <outline>
    <contour>
      <point x="332" y="0" type="line"/>
      <point x="678" y="0" type="line"/>
      <point x="1109" y="569" type="line"/>
      <point x="817" y="639" type="line"/>
    </contour>
    <contour>
      <point x="141" y="569" type="line"/>
      <point x="1111" y="569" type="line"/>
      <point x="1057" y="826" type="line"/>
      <point x="89" y="826" type="line"/>
    </contour>
    <contour>
      <point x="383" y="757" type="line"/>
      <point x="866" y="1386" type="line"/>
      <point x="520" y="1386" type="line"/>
      <point x="89" y="826" type="line"/>
    </contour>
  </outline>
</glyph>
<glyph name="koppa" format="2">
  <advance width="1200"/>
  <unicode hex="03DF"/>
  <anchor x="600" y="0" name="bottom"/>
  <anchor x="600" y="1484" name="top"/>
  <outline>
    <contour>
      <point x="752" y="-34" type="line"/>
      <point x="774" y="88"/>
      <point x="807" y="186"/>
      <point x="902" y="384" type="curve" smooth="yes"/>
      <point x="1082" y="759" type="line"/>
      <point x="875" y="875" type="line"/>
      <point x="695" y="572" type="line" smooth="yes"/>
      <point x="552" y="332"/>
      <point x="478" y="181"/>
      <point x="471" y="31" type="curve"/>
    </contour>
    <contour>
      <point x="197" y="502" type="line"/>
      <point x="1084" y="759" type="line"/>
      <point x="1005" y="973" type="line"/>
      <point x="118" y="716" type="line"/>
    </contour>
    <contour>
      <point x="331" y="610" type="line"/>
      <point x="510" y="914" type="line" smooth="yes"/>
      <point x="652" y="1156"/>
      <point x="728" y="1305"/>
      <point x="734" y="1455" type="curve"/>
      <point x="454" y="1520" type="line"/>
      <point x="432" y="1398"/>
      <point x="400" y="1301"/>
      <point x="304" y="1102" type="curve" smooth="yes"/>
      <point x="118" y="716" type="line"/>
    </contour>
  </outline>
</glyph>
<glyph name="sigmaLunateSymbol" format="2">
  <advance width="1200"/>
  <unicode hex="03F2"/>
  <anchor x="600" y="0" name="bottom"/>
  <anchor x="737" y="530" name="center"/>
  <anchor x="600" y="1062" name="top"/>
  <outline>
    <contour>
      <point x="703" y="215" type="curve" smooth="yes"/>
      <point x="568" y="215"/>
      <point x="467" y="289"/>
      <point x="467" y="524" type="curve" smooth="yes"/>
      <point x="467" y="763"/>
      <point x="562" y="854"/>
      <point x="705" y="854" type="curve" smooth="yes"/>
      <point x="791" y="854"/>
      <point x="872" y="824"/>
      <point x="944" y="774" type="curve"/>
      <point x="1081" y="964" type="line"/>
      <point x="975" y="1052"/>
      <point x="853" y="1097"/>
      <point x="692" y="1097" type="curve" smooth="yes"/>
      <point x="350" y="1097"/>
      <point x="137" y="856"/>
      <point x="137" y="524" type="curve" smooth="yes"/>
      <point x="137" y="192"/>
      <point x="343" y="-34"/>
      <point x="686" y="-34" type="curve" smooth="yes"/>
      <point x="851" y="-34"/>
      <point x="987" y="26"/>
      <point x="1081" y="106" type="curve"/>
      <point x="940" y="306" type="line"/>
      <point x="864" y="253"/>
      <point x="790" y="215"/>
    </contour>
  </outline>
</glyph>
<glyph name="san" format="2">
  <advance width="1200"/>
  <unicode hex="03FB"/>
  <anchor x="600" y="-443" name="bottom"/>
  <anchor x="600" y="1062" name="top"/>
  <outline>
    <contour>
      <point x="3" y="-443" type="line"/>
      <point x="276" y="-423" type="line"/>
      <point x="331" y="281" type="line" smooth="yes"/>
      <point x="346" y="482"/>
      <point x="341" y="629"/>
      <point x="339" y="841" type="curve"/>
      <point x="453" y="133" type="line"/>
      <point x="719" y="133" type="line"/>
      <point x="867" y="847" type="line"/>
      <point x="857" y="636"/>
      <point x="853" y="490"/>
      <point x="861" y="288" type="curve" smooth="yes"/>
      <point x="874" y="0" type="line"/>
      <point x="1153" y="0" type="line"/>
      <point x="1063" y="1062" type="line"/>
      <point x="720" y="1062" type="line"/>
      <point x="596" y="383" type="line"/>
      <point x="491" y="1062" type="line"/>
      <point x="143" y="1062" type="line"/>
    </contour>
  </outline>
</glyph>
<glyph name="rhoStrokeSymbol" format="2">
  <advance width="1200"/>
  <unicode hex="03FC"/>
  <outline>
    <contour>
      <point x="59" y="-105" type="line"/>
      <point x="59" y="-291" type="line"/>
      <point x="182" y="-291" type="line"/>
      <point x="773" y="-291" type="line"/>
      <point x="773" y="-105" type="line"/>
    </contour>
    <component base="rho" xOffset="46"/>
  </outline>
</glyph>
<glyph name="SigmaLunateReversedSymbol" format="2">
  <advance width="1200"/>
  <unicode hex="03FD"/>
  <anchor x="600" y="0" name="bottom"/>
  <anchor x="460" y="702" name="center"/>
  <anchor x="600" y="1386" name="top"/>
  <outline>
    <contour>
      <point x="504" y="1421" type="curve" smooth="yes"/>
      <point x="314" y="1421"/>
      <point x="177" y="1370"/>
      <point x="39" y="1270" type="curve"/>
      <point x="176" y="1078" type="line"/>
      <point x="272" y="1140"/>
      <point x="368" y="1178"/>
      <point x="488" y="1178" type="curve" smooth="yes"/>
      <point x="691" y="1178"/>
      <point x="793" y="1036"/>
      <point x="793" y="696" type="curve" smooth="yes"/>
      <point x="793" y="362"/>
      <point x="659" y="219"/>
      <point x="470" y="219" type="curve" smooth="yes"/>
      <point x="332" y="219"/>
      <point x="247" y="281"/>
      <point x="170" y="339" type="curve"/>
      <point x="21" y="153" type="line"/>
      <point x="125" y="50"/>
      <point x="274" y="-34"/>
      <point x="488" y="-34" type="curve" smooth="yes"/>
      <point x="865" y="-34"/>
      <point x="1132" y="220"/>
      <point x="1132" y="696" type="curve" smooth="yes"/>
      <point x="1132" y="1160"/>
      <point x="891" y="1421"/>
    </contour>
  </outline>
</glyph>
<glyph name="De-cy" format="2">
  <advance width="1200"/>
  <unicode hex="0414"/>
  <anchor x="600" y="-443" name="bottom"/>
  <anchor x="600" y="1386" name="top"/>
  <outline>
    <contour>
      <point x="1049" y="1386" type="line"/>
      <point x="278" y="1386" type="line"/>
      <point x="237" y="951" type="line" smooth="yes"/>
      <point x="192" y="478"/>
      <point x="147" y="338"/>
      <point x="59" y="243" type="curve"/>
      <point x="230" y="0" type="line"/>
      <point x="903" y="-2" type="line"/>
      <point x="1049" y="243" type="line"/>
    </contour>
    <contour>
      <point x="749" y="1154" type="line"/>
      <point x="749" y="243" type="line"/>
      <point x="316" y="243" type="line"/>
      <point x="446" y="351"/>
      <point x="499" y="517"/>
      <point x="538" y="978" type="curve" smooth="yes"/>
      <point x="552" y="1154" type="line"/>
    </contour>
    <component base="descStraight-cy.case" xOffset="371"/>
    <component base="descStraight-cy.case" xScale="-1" xOffset="763"/>
  </outline>
</glyph>
<glyph name="El-cy" format="2">
  <advance width="1200"/>
  <unicode hex="041B"/>
  <anchor x="600" y="0" name="bottom"/>
  <anchor x="1116" y="0" name="bottomright"/>
  <anchor x="600" y="1386" name="top"/>
  <outline>
    <contour>
      <point x="1096" y="1386" type="line"/>
      <point x="264" y="1386" type="line"/>
      <point x="223" y="945" type="line" smooth="yes"/>
      <point x="169" y="359"/>
      <point x="108" y="274"/>
      <point x="-25" y="176" type="curve"/>
      <point x="104" y="-40" type="line"/>
      <point x="381" y="92"/>
      <point x="467" y="248"/>
      <point x="530" y="913" type="curve" smooth="yes"/>
      <point x="550" y="1136" type="line"/>
      <point x="768" y="1136" type="line"/>
      <point x="768" y="0" type="line"/>
      <point x="1096" y="0" type="line"/>
    </contour>
  </outline>
</glyph>
<glyph name="ve-cy" format="2">
  <advance width="1200"/>
  <unicode hex="0432"/>
  <outline>
    <contour>
      <point x="596" y="1097" type="curve" smooth="yes"/>
      <point x="440" y="1097"/>
      <point x="309" y="1079"/>
      <point x="158" y="1052" type="curve"/>
      <point x="158" y="0" type="line"/>
      <point x="628" y="0" type="line" smooth="yes"/>
      <point x="899" y="0"/>
      <point x="1117" y="88"/>
      <point x="1117" y="320" type="curve" smooth="yes"/>
      <point x="1117" y="466"/>
      <point x="1021" y="560"/>
      <point x="847" y="584" type="curve"/>
      <point x="981" y="618"/>
      <point x="1068" y="692"/>
      <point x="1068" y="814" type="curve" smooth="yes"/>
      <point x="1068" y="1001"/>
      <point x="869" y="1097"/>
    </contour>
    <contour>
      <point x="592" y="895" type="curve" smooth="yes"/>
      <point x="705" y="895"/>
      <point x="764" y="853"/>
      <point x="764" y="770" type="curve" smooth="yes"/>
      <point x="764" y="687"/>
      <point x="709" y="647"/>
      <point x="608" y="647" type="curve" smooth="yes"/>
      <point x="442" y="647" type="line"/>
      <point x="442" y="482" type="line"/>
      <point x="626" y="482" type="line" smooth="yes"/>
      <point x="740" y="482"/>
      <point x="798" y="431"/>
      <point x="798" y="345" type="curve" smooth="yes"/>
      <point x="798" y="255"/>
      <point x="741" y="208"/>
      <point x="619" y="208" type="curve" smooth="yes"/>
      <point x="474" y="208" type="line"/>
      <point x="474" y="887" type="line"/>
      <point x="507" y="893"/>
      <point x="545" y="895"/>
    </contour>
  </outline>
</glyph>
<glyph name="ka-cy" format="2">
  <advance width="1200"/>
  <unicode hex="043A"/>
  <anchor x="600" y="0" name="bottom"/>
  <anchor x="1075" y="0" name="bottomright"/>
  <anchor x="640" y="1062" name="top"/>
  <outline>
    <contour>
      <point x="146" y="0" type="line"/>
      <point x="462" y="0" type="line"/>
      <point x="462" y="447" type="line"/>
      <point x="600" y="447" type="line"/>
      <point x="839" y="0" type="line"/>
      <point x="1173" y="0" type="line"/>
      <point x="851" y="570" type="line"/>
      <point x="1144" y="1062" type="line"/>
      <point x="838" y="1062" type="line"/>
      <point x="608" y="657" type="line"/>
      <point x="462" y="657" type="line"/>
      <point x="462" y="1062" type="line"/>
      <point x="146" y="1062" type="line"/>
    </contour>
  </outline>
</glyph>
<glyph name="en-cy" format="2">
  <advance width="1200"/>
  <unicode hex="043D"/>
  <anchor x="1080" y="0" name="bottomright"/>
  <outline>
    <contour>
      <point x="744" y="0" type="line"/>
      <point x="1060" y="0" type="line"/>
      <point x="1060" y="1062" type="line"/>
      <point x="744" y="1062" type="line"/>
      <point x="744" y="657" type="line"/>
      <point x="456" y="657" type="line"/>
      <point x="456" y="1062" type="line"/>
      <point x="140" y="1062" type="line"/>
      <point x="140" y="0" type="line"/>
      <point x="456" y="0" type="line"/>
      <point x="456" y="423" type="line"/>
      <point x="744" y="423" type="line"/>
    </contour>
  </outline>
</glyph>
<glyph name="che-cy" format="2">
  <advance width="1200"/>
  <unicode hex="0447"/>
  <anchor x="600" y="0" name="bottom"/>
  <anchor x="716" y="0" name="bottomleft"/>
  <anchor x="1070" y="0" name="bottomright"/>
  <anchor x="574" y="1062" name="top"/>
  <outline>
    <contour>
      <point x="1052" y="1062" type="line"/>
      <point x="736" y="1062" type="line"/>
      <point x="736" y="599" type="line"/>
      <point x="688" y="559"/>
      <point x="616" y="530"/>
      <point x="547" y="530" type="curve" smooth="yes"/>
      <point x="466" y="530"/>
      <point x="412" y="565"/>
      <point x="412" y="666" type="curve" smooth="yes"/>
      <point x="412" y="1062" type="line"/>
      <point x="96" y="1062" type="line"/>
      <point x="96" y="626" type="line" smooth="yes"/>
      <point x="96" y="424"/>
      <point x="214" y="297"/>
      <point x="431" y="297" type="curve" smooth="yes"/>
      <point x="557" y="297"/>
      <point x="662" y="335"/>
      <point x="736" y="395" type="curve"/>
      <point x="736" y="0" type="line"/>
      <point x="1052" y="0" type="line"/>
    </contour>
  </outline>
</glyph>
<glyph name="sha-cy" format="2">
  <advance width="1200"/>
  <unicode hex="0448"/>
  <anchor x="600" y="0" name="bottom"/>
  <anchor x="1131" y="0" name="bottomright"/>
  <anchor x="600" y="1062" name="top"/>
  <outline>
    <contour>
      <point x="1151" y="1062" type="line"/>
      <point x="880" y="1062" type="line"/>
      <point x="880" y="233" type="line"/>
      <point x="717" y="233" type="line"/>
      <point x="717" y="1062" type="line"/>
      <point x="483" y="1062" type="line"/>
      <point x="483" y="233" type="line"/>
      <point x="318" y="233" type="line"/>
      <point x="318" y="1062" type="line"/>
      <point x="49" y="1062" type="line"/>
      <point x="49" y="0" type="line"/>
      <point x="1151" y="0" type="line"/>
    </contour>
  </outline>
</glyph>
<glyph name="hardsign-cy" format="2">
  <advance width="1200"/>
  <unicode hex="044A"/>
  <outline>
    <contour>
      <point x="552" y="1062" type="line"/>
      <point x="27" y="1062" type="line"/>
      <point x="27" y="836" type="line"/>
      <point x="236" y="836" type="line"/>
      <point x="236" y="0" type="line"/>
      <point x="668" y="0" type="line" smooth="yes"/>
      <point x="964" y="0"/>
      <point x="1143" y="117"/>
      <point x="1143" y="374" type="curve" smooth="yes"/>
      <point x="1143" y="622"/>
      <point x="972" y="741"/>
      <point x="633" y="741" type="curve" smooth="yes"/>
      <point x="552" y="741" type="line"/>
    </contour>
    <contour>
      <point x="636" y="534" type="line" smooth="yes"/>
      <point x="761" y="534"/>
      <point x="817" y="487"/>
      <point x="817" y="380" type="curve" smooth="yes"/>
      <point x="817" y="258"/>
      <point x="755" y="218"/>
      <point x="646" y="218" type="curve" smooth="yes"/>
      <point x="552" y="218" type="line"/>
      <point x="552" y="534" type="line"/>
    </contour>
  </outline>
</glyph>
<glyph name="dje-cy" format="2">
  <advance width="1200"/>
  <unicode hex="0452"/>
  <anchor x="600" y="-443" name="bottom"/>
  <anchor x="600" y="1484" name="top"/>
  <outline>
    <contour>
      <point x="456" y="1515" type="line"/>
      <point x="140" y="1484" type="line"/>
      <point x="140" y="1371" type="line"/>
      <point x="17" y="1371" type="line"/>
      <point x="17" y="1186" type="line"/>
      <point x="140" y="1186" type="line"/>
      <point x="140" y="0" type="line"/>
      <point x="456" y="0" type="line"/>
      <point x="456" y="735" type="line"/>
      <point x="516" y="815"/>
      <point x="575" y="864"/>
      <point x="642" y="864" type="curve" smooth="yes"/>
      <point x="706" y="864"/>
      <point x="744" y="831"/>
      <point x="744" y="742" type="curve" smooth="yes"/>
      <point x="744" y="87" type="line" smooth="yes"/>
      <point x="744" y="-94"/>
      <point x="659" y="-154"/>
      <point x="527" y="-212" type="curve"/>
      <point x="637" y="-443" type="line"/>
      <point x="908" y="-336"/>
      <point x="1060" y="-223"/>
      <point x="1060" y="161" type="curve" smooth="yes"/>
      <point x="1060" y="780" type="line" smooth="yes"/>
      <point x="1060" y="981"/>
      <point x="957" y="1097"/>
      <point x="768" y="1097" type="curve" smooth="yes"/>
      <point x="648" y="1097"/>
      <point x="544" y="1045"/>
      <point x="456" y="953" type="curve"/>
      <point x="456" y="1186" type="line"/>
      <point x="737" y="1186" type="line"/>
      <point x="737" y="1371" type="line"/>
      <point x="456" y="1371" type="line"/>
    </contour>
  </outline>
</glyph>
<glyph name="e-cy" format="2">
  <advance width="1200"/>
  <unicode hex="0454"/>
  <anchor x="600" y="0" name="bottom"/>
  <anchor x="600" y="1062" name="top"/>
  <outline>
    <contour>
      <point x="688" y="1097" type="curve" smooth="yes"/>
      <point x="352" y="1097"/>
      <point x="137" y="856"/>
      <point x="137" y="524" type="curve" smooth="yes"/>
      <point x="137" y="192"/>
      <point x="337" y="-34"/>
      <point x="684" y="-34" type="curve" smooth="yes"/>
      <point x="835" y="-34"/>
      <point x="979" y="14"/>
      <point x="1081" y="94" type="curve"/>
      <point x="946" y="276" type="line"/>
      <point x="870" y="222"/>
      <point x="796" y="196"/>
      <point x="709" y="196" type="curve" smooth="yes"/>
      <point x="572" y="196"/>
      <point x="475" y="265"/>
      <point x="457" y="443" type="curve"/>
      <point x="877" y="443" type="line"/>
      <point x="877" y="641" type="line"/>
      <point x="457" y="641" type="line"/>
      <point x="478" y="797"/>
      <point x="565" y="868"/>
      <point x="705" y="868" type="curve" smooth="yes"/>
      <point x="784" y="868"/>
      <point x="868" y="842"/>
      <point x="948" y="788" type="curve"/>
      <point x="1081" y="964" type="line"/>
      <point x="977" y="1052"/>
      <point x="849" y="1097"/>
    </contour>
  </outline>
</glyph>
<glyph name="nje-cy" format="2">
  <advance width="1200"/>
  <unicode hex="045A"/>
  <anchor x="600" y="0" name="bottom"/>
  <anchor x="600" y="1062" name="top"/>
  <outline>
    <contour>
      <point x="769" y="1062" type="line"/>
      <point x="512" y="1062" type="line"/>
      <point x="512" y="687" type="line"/>
      <point x="324" y="687" type="line"/>
      <point x="324" y="1062" type="line"/>
      <point x="66" y="1062" type="line"/>
      <point x="66" y="0" type="line"/>
      <point x="324" y="0" type="line"/>
      <point x="324" y="491" type="line"/>
      <point x="512" y="491" type="line"/>
      <point x="512" y="0" type="line"/>
      <point x="780" y="0" type="line" smooth="yes"/>
      <point x="1051" y="0"/>
      <point x="1209" y="111"/>
      <point x="1209" y="346" type="curve" smooth="yes"/>
      <point x="1209" y="570"/>
      <point x="1073" y="687"/>
      <point x="789" y="687" type="curve" smooth="yes"/>
      <point x="769" y="687" type="line"/>
    </contour>
    <contour>
      <point x="799" y="499" type="line" smooth="yes"/>
      <point x="897" y="499"/>
      <point x="942" y="451"/>
      <point x="942" y="349" type="curve" smooth="yes"/>
      <point x="942" y="238"/>
      <point x="887" y="200"/>
      <point x="776" y="200" type="curve" smooth="yes"/>
      <point x="769" y="200" type="line"/>
      <point x="769" y="499" type="line"/>
    </contour>
  </outline>
</glyph>
<glyph name="eiotified-cy" format="2">
  <advance width="1200"/>
  <unicode hex="0465"/>
  <anchor x="600" y="0" name="bottom"/>
  <anchor x="600" y="1062" name="top"/>
  <outline>
    <contour>
      <point x="351" y="1062" type="line"/>
      <point x="86" y="1062" type="line"/>
      <point x="86" y="0" type="line"/>
      <point x="351" y="0" type="line"/>
      <point x="351" y="433" type="line"/>
      <point x="510" y="433" type="line"/>
      <point x="510" y="645" type="line"/>
      <point x="351" y="645" type="line"/>
    </contour>
    <contour>
      <point x="880" y="1097" type="curve" smooth="yes"/>
      <point x="590" y="1097"/>
      <point x="442" y="856"/>
      <point x="442" y="524" type="curve" smooth="yes"/>
      <point x="442" y="192"/>
      <point x="581" y="-34"/>
      <point x="870" y="-34" type="curve" smooth="yes"/>
      <point x="984" y="-34"/>
      <point x="1080" y="18"/>
      <point x="1150" y="94" type="curve"/>
      <point x="1029" y="229" type="line"/>
      <point x="993" y="197"/>
      <point x="950" y="173"/>
      <point x="891" y="173" type="curve" smooth="yes"/>
      <point x="792" y="173"/>
      <point x="727" y="242"/>
      <point x="721" y="443" type="curve"/>
      <point x="1010" y="443" type="line"/>
      <point x="1010" y="641" type="line"/>
      <point x="721" y="641" type="line"/>
      <point x="735" y="818"/>
      <point x="794" y="889"/>
      <point x="892" y="889" type="curve" smooth="yes"/>
      <point x="946" y="889"/>
      <point x="985" y="869"/>
      <point x="1022" y="842" type="curve"/>
      <point x="1150" y="981" type="line"/>
      <point x="1078" y="1056"/>
      <point x="990" y="1097"/>
    </contour>
  </outline>
</glyph>
<glyph name="Izhitsa-cy" format="2">
  <advance width="1200"/>
  <unicode hex="0474"/>
  <anchor x="600" y="0" name="bottom"/>
  <anchor x="596" y="1386" name="top"/>
  <outline>
    <contour>
      <point x="1153" y="1180" type="curve"/>
      <point x="1196" y="1409" type="line"/>
      <point x="1169" y="1417"/>
      <point x="1121" y="1425"/>
      <point x="1063" y="1425" type="curve" smooth="yes"/>
      <point x="889" y="1425"/>
      <point x="786" y="1352"/>
      <point x="746" y="1145" type="curve" smooth="yes"/>
      <point x="576" y="251" type="line"/>
      <point x="367" y="1386" type="line"/>
      <point x="19" y="1386" type="line"/>
      <point x="367" y="0" type="line"/>
      <point x="775" y="0" type="line"/>
      <point x="1061" y="1129" type="line" smooth="yes"/>
      <point x="1072" y="1170"/>
      <point x="1090" y="1184"/>
      <point x="1122" y="1184" type="curve" smooth="yes"/>
      <point x="1135" y="1184"/>
      <point x="1145" y="1182"/>
    </contour>
  </outline>
</glyph>
<glyph name="semisoftsign-cy" format="2">
  <advance width="1200"/>
  <unicode hex="048D"/>
  <anchor x="600" y="0" name="bottom"/>
  <anchor x="600" y="1062" name="top"/>
  <outline>
    <contour>
      <point x="197" y="0" type="line"/>
      <point x="607" y="0" type="line" smooth="yes"/>
      <point x="896" y="0"/>
      <point x="1113" y="85"/>
      <point x="1113" y="356" type="curve" smooth="yes"/>
      <point x="1113" y="585"/>
      <point x="943" y="705"/>
      <point x="622" y="705" type="curve" smooth="yes"/>
      <point x="481" y="705" type="line"/>
      <point x="481" y="497" type="line"/>
      <point x="626" y="497" type="line" smooth="yes"/>
      <point x="732" y="497"/>
      <point x="787" y="451"/>
      <point x="787" y="362" type="curve" smooth="yes"/>
      <point x="787" y="258"/>
      <point x="725" y="218"/>
      <point x="616" y="218" type="curve" smooth="yes"/>
      <point x="513" y="218" type="line"/>
      <point x="513" y="1062" type="line"/>
      <point x="197" y="1062" type="line"/>
    </contour>
    <contour>
      <point x="72" y="817" type="line"/>
      <point x="821" y="817" type="line"/>
      <point x="841" y="979" type="line"/>
      <point x="197" y="979" type="line"/>
      <point x="72" y="979" type="line"/>
    </contour>
  </outline>
</glyph>
<glyph name="Ertick-cy" format="2">
  <advance width="1200"/>
  <unicode hex="048E"/>
  <anchor x="600" y="0" name="bottom"/>
  <anchor x="600" y="1386" name="top"/>
  <outline>
    <contour>
      <point x="512" y="958" type="line"/>
      <point x="892" y="336" type="line"/>
      <point x="1050" y="336" type="line"/>
      <point x="670" y="958" type="line"/>
    </contour>
    <contour>
      <point x="834" y="934" type="curve" smooth="yes"/>
      <point x="834" y="751"/>
      <point x="748" y="699"/>
      <point x="602" y="699" type="curve" smooth="yes"/>
      <point x="453" y="699" type="line"/>
      <point x="453" y="1152" type="line"/>
      <point x="584" y="1152" type="line" smooth="yes"/>
      <point x="751" y="1152"/>
      <point x="834" y="1082"/>
    </contour>
    <contour>
      <point x="1153" y="934" type="curve" smooth="yes"/>
      <point x="1153" y="1238"/>
      <point x="937" y="1386"/>
      <point x="561" y="1386" type="curve" smooth="yes"/>
      <point x="125" y="1386" type="line"/>
      <point x="125" y="0" type="line"/>
      <point x="453" y="0" type="line"/>
      <point x="453" y="461" type="line"/>
      <point x="603" y="461" type="line" smooth="yes"/>
      <point x="912" y="461"/>
      <point x="1153" y="633"/>
    </contour>
  </outline>
</glyph>
<glyph name="Gheupturn-cy" format="2">
  <advance width="1200"/>
  <unicode hex="0490"/>
  <outline>
    <contour>
      <point x="1117" y="1695" type="line"/>
      <point x="815" y="1695" type="line"/>
      <point x="815" y="1366" type="line"/>
      <point x="1117" y="1386" type="line"/>
    </contour>
    <component base="Ge-cy"/>
  </outline>
</glyph>
<glyph name="gheupturn-cy" format="2">
  <advance width="1200"/>
  <unicode hex="0491"/>
  <outline>
    <contour>
      <point x="790" y="1009" type="line"/>
      <point x="1077" y="1062" type="line"/>
      <point x="1077" y="1367" type="line"/>
      <point x="790" y="1367" type="line"/>
    </contour>
    <component base="ge-cy"/>
  </outline>
</glyph>
<glyph name="Ghemiddlehook-cy" format="2">
  <advance width="1200"/>
  <unicode hex="0494"/>
  <anchor x="600" y="-443" name="bottom"/>
  <anchor x="600" y="1386" name="top"/>
  <outline>
    <contour>
      <point x="971" y="1386" type="line"/>
      <point x="87" y="1386" type="line"/>
      <point x="412" y="1137" type="line"/>
      <point x="932" y="1137" type="line"/>
    </contour>
    <component base="Shha-cy" xOffset="-19"/>
    <component base="hookHELPER.case" xOffset="341"/>
  </outline>
</glyph>
<glyph name="Kaverticalstroke-cy" format="2">
  <advance width="1200"/>
  <unicode hex="049C"/>
  <anchor x="600" y="0" name="bottom"/>
  <anchor x="600" y="1386" name="top"/>
  <outline>
    <contour>
      <point x="472" y="294" type="line"/>
      <point x="582" y="294" type="line"/>
      <point x="582" y="619" type="line"/>
      <point x="620" y="619" type="line"/>
      <point x="863" y="0" type="line"/>
      <point x="1207" y="0" type="line"/>
      <point x="857" y="757" type="line"/>
      <point x="1169" y="1386" type="line"/>
      <point x="855" y="1386" type="line"/>
      <point x="614" y="825" type="line"/>
      <point x="582" y="825" type="line"/>
      <point x="582" y="1146" type="line"/>
      <point x="472" y="1146" type="line"/>
      <point x="472" y="825" type="line"/>
      <point x="401" y="825" type="line"/>
      <point x="401" y="1386" type="line"/>
      <point x="104" y="1386" type="line"/>
      <point x="104" y="0" type="line"/>
      <point x="401" y="0" type="line"/>
      <point x="401" y="619" type="line"/>
      <point x="472" y="619" type="line"/>
    </contour>
  </outline>
</glyph>
<glyph name="kastroke-cy" format="2">
  <advance width="1200"/>
  <unicode hex="049F"/>
  <outline>
    <contour>
      <point x="850" y="570" type="line"/>
      <point x="1144" y="1062" type="line"/>
      <point x="837" y="1062" type="line"/>
      <point x="607" y="657" type="line"/>
      <point x="499" y="657" type="line"/>
      <point x="499" y="1517" type="line"/>
      <point x="183" y="1484" type="line"/>
      <point x="183" y="0" type="line"/>
      <point x="499" y="0" type="line"/>
      <point x="499" y="447" type="line"/>
      <point x="599" y="447" type="line"/>
      <point x="838" y="0" type="line"/>
      <point x="1173" y="0" type="line"/>
    </contour>
    <contour>
      <point x="185" y="1315" type="line"/>
      <point x="25" y="1315" type="line"/>
      <point x="25" y="1130" type="line"/>
      <point x="501" y="1130" type="line"/>
      <point x="745" y="1130" type="line"/>
      <point x="745" y="1315" type="line"/>
    </contour>
  </outline>
</glyph>
<glyph name="Pemiddlehook-cy" format="2">
  <advance width="1200"/>
  <unicode hex="04A6"/>
  <anchor x="600" y="-443" name="bottom"/>
  <anchor x="600" y="1386" name="top"/>
  <outline>
    <contour>
      <point x="471" y="0" type="line"/>
      <point x="741" y="0" type="line"/>
      <point x="741" y="1386" type="line"/>
      <point x="46" y="1386" type="line"/>
      <point x="46" y="0" type="line"/>
      <point x="316" y="0" type="line"/>
      <point x="316" y="1167" type="line"/>
      <point x="471" y="1167" type="line"/>
    </contour>
    <contour>
      <point x="917" y="921" type="curve" smooth="yes"/>
      <point x="791" y="921"/>
      <point x="717" y="846"/>
      <point x="669" y="773" type="curve"/>
      <point x="688" y="612" type="line"/>
      <point x="724" y="659"/>
      <point x="763" y="703"/>
      <point x="821" y="703" type="curve" smooth="yes"/>
      <point x="870" y="703"/>
      <point x="897" y="667"/>
      <point x="897" y="602" type="curve" smooth="yes"/>
      <point x="897" y="0" type="line"/>
      <point x="1167" y="0" type="line"/>
      <point x="1167" y="623" type="line" smooth="yes"/>
      <point x="1167" y="799"/>
      <point x="1074" y="921"/>
    </contour>
    <contour>
      <point x="824" y="-453" type="curve" smooth="yes"/>
      <point x="1027" y="-453"/>
      <point x="1167" y="-314"/>
      <point x="1167" y="-91" type="curve" smooth="yes"/>
      <point x="1167" y="2" type="line"/>
      <point x="897" y="2" type="line"/>
      <point x="897" y="-111" type="line" smooth="yes"/>
      <point x="897" y="-209"/>
      <point x="859" y="-245"/>
      <point x="793" y="-245" type="curve" smooth="yes"/>
      <point x="738" y="-245"/>
      <point x="698" y="-225"/>
      <point x="664" y="-203" type="curve"/>
      <point x="553" y="-364" type="line"/>
      <point x="623" y="-415"/>
      <point x="700" y="-453"/>
    </contour>
  </outline>
</glyph>
<glyph name="Haabkhasian-cy" format="2">
  <advance width="1200"/>
  <unicode hex="04A8"/>
  <anchor x="600" y="-443" name="bottom"/>
  <anchor x="600" y="1386" name="top"/>
  <outline>
    <contour>
      <point x="614" y="-40" type="curve"/>
      <point x="613" y="188" type="line"/>
      <point x="484" y="188"/>
      <point x="385" y="325"/>
      <point x="385" y="690" type="curve" smooth="yes"/>
      <point x="385" y="1044"/>
      <point x="483" y="1186"/>
      <point x="620" y="1186" type="curve" smooth="yes"/>
      <point x="716" y="1186"/>
      <point x="790" y="1148"/>
      <point x="876" y="1082" type="curve"/>
      <point x="1031" y="1262" type="line"/>
      <point x="915" y="1362"/>
      <point x="799" y="1425"/>
      <point x="606" y="1425" type="curve" smooth="yes"/>
      <point x="283" y="1425"/>
      <point x="45" y="1164"/>
      <point x="45" y="690" type="curve" smooth="yes"/>
      <point x="45" y="218"/>
      <point x="282" y="-40"/>
    </contour>
    <contour>
      <point x="948" y="-296" type="curve"/>
      <point x="1113" y="-177" type="line"/>
      <point x="876" y="149"/>
      <point x="764" y="347"/>
      <point x="764" y="553" type="curve" smooth="yes"/>
      <point x="764" y="628"/>
      <point x="793" y="669"/>
      <point x="844" y="669" type="curve" smooth="yes"/>
      <point x="891" y="669"/>
      <point x="920" y="631"/>
      <point x="920" y="557" type="curve" smooth="yes"/>
      <point x="922" y="299"/>
      <point x="821" y="188"/>
      <point x="613" y="188" type="curve"/>
      <point x="614" y="-40" type="line"/>
      <point x="960" y="-40"/>
      <point x="1164" y="248"/>
      <point x="1164" y="547" type="curve" smooth="yes"/>
      <point x="1164" y="771"/>
      <point x="1011" y="864"/>
      <point x="846" y="864" type="curve" smooth="yes"/>
      <point x="658" y="864"/>
      <point x="539" y="749"/>
      <point x="539" y="547" type="curve" smooth="yes"/>
      <point x="539" y="279"/>
      <point x="699" y="48"/>
    </contour>
  </outline>
</glyph>
<glyph name="haabkhasian-cy" format="2">
  <advance width="1200"/>
  <unicode hex="04A9"/>
  <anchor x="600" y="-443" name="bottom"/>
  <anchor x="600" y="1062" name="top"/>
  <outline>
    <contour>
      <point x="984" y="-296" type="curve"/>
      <point x="1118" y="-183" type="line"/>
      <point x="859" y="143"/>
      <point x="789" y="292"/>
      <point x="789" y="440" type="curve" smooth="yes"/>
      <point x="789" y="497"/>
      <point x="814" y="530"/>
      <point x="857" y="530" type="curve" smooth="yes"/>
      <point x="896" y="530"/>
      <point x="922" y="505"/>
      <point x="922" y="442" type="curve" smooth="yes"/>
      <point x="922" y="305"/>
      <point x="828" y="215"/>
      <point x="654" y="215" type="curve"/>
      <point x="637" y="-34" type="line"/>
      <point x="962" y="-34"/>
      <point x="1151" y="204"/>
      <point x="1151" y="422" type="curve" smooth="yes"/>
      <point x="1151" y="616"/>
      <point x="1025" y="709"/>
      <point x="861" y="709" type="curve" smooth="yes"/>
      <point x="682" y="709"/>
      <point x="573" y="606"/>
      <point x="573" y="434" type="curve" smooth="yes"/>
      <point x="573" y="263"/>
      <point x="696" y="47"/>
    </contour>
    <contour>
      <point x="798" y="816" type="curve"/>
      <point x="901" y="1032" type="line"/>
      <point x="826" y="1074"/>
      <point x="734" y="1097"/>
      <point x="638" y="1097" type="curve" smooth="yes"/>
      <point x="302" y="1097"/>
      <point x="89" y="856"/>
      <point x="89" y="524" type="curve" smooth="yes"/>
      <point x="89" y="192"/>
      <point x="294" y="-34"/>
      <point x="637" y="-34" type="curve"/>
      <point x="654" y="215" type="line"/>
      <point x="515" y="215"/>
      <point x="415" y="289"/>
      <point x="415" y="524" type="curve" smooth="yes"/>
      <point x="415" y="763"/>
      <point x="517" y="854"/>
      <point x="652" y="854" type="curve" smooth="yes"/>
      <point x="706" y="854"/>
      <point x="752" y="840"/>
    </contour>
  </outline>
</glyph>
<glyph name="ustrait-cy" format="2">
  <advance width="1200"/>
  <unicode hex="04AF"/>
  <anchor x="600" y="-443" name="bottom"/>
  <anchor x="600" y="1062" name="top"/>
  <outline>
    <contour>
      <point x="446" y="-443" type="line"/>
      <point x="754" y="-410" type="line"/>
      <point x="754" y="11" type="line"/>
      <point x="1152" y="1062" type="line"/>
      <point x="830" y="1062" type="line"/>
      <point x="606" y="276" type="line"/>
      <point x="391" y="1062" type="line"/>
      <point x="48" y="1062" type="line"/>
      <point x="446" y="9" type="line"/>
    </contour>
  </outline>
</glyph>
<glyph name="ustraitstroke-cy" format="2">
  <advance width="1200"/>
  <unicode hex="04B1"/>
  <outline>
    <contour>
      <point x="947" y="144" type="line"/>
      <point x="255" y="144" type="line"/>
      <point x="255" y="-33" type="line"/>
      <point x="754" y="-33" type="line"/>
      <point x="947" y="-33" type="line"/>
    </contour>
    <component base="ustrait-cy"/>
  </outline>
</glyph>
<glyph name="cheverticalstroke-cy" format="2">
  <advance width="1200"/>
  <unicode hex="04B9"/>
  <outline>
    <contour>
      <point x="628" y="799" type="line"/>
      <point x="508" y="799" type="line"/>
      <point x="508" y="163" type="line"/>
      <point x="628" y="163" type="line"/>
    </contour>
    <component base="che-cy"/>
  </outline>
</glyph>
<glyph name="Shha-cy" format="2">
  <advance width="1200"/>
  <unicode hex="04BA"/>
  <anchor x="600" y="0" name="bottom"/>
  <anchor x="1171" y="0" name="bottomright"/>
  <anchor x="600" y="1386" name="top"/>
  <outline>
    <contour>
      <point x="725" y="941" type="curve" smooth="yes"/>
      <point x="594" y="941"/>
      <point x="490" y="892"/>
      <point x="408" y="821" type="curve"/>
      <point x="413" y="605" type="line"/>
      <point x="459" y="653"/>
      <point x="524" y="697"/>
      <point x="633" y="697" type="curve" smooth="yes"/>
      <point x="768" y="697"/>
      <point x="823" y="634"/>
      <point x="823" y="460" type="curve" smooth="yes"/>
      <point x="823" y="0" type="line"/>
      <point x="1151" y="0" type="line"/>
      <point x="1151" y="462" type="line" smooth="yes"/>
      <point x="1151" y="771"/>
      <point x="1006" y="941"/>
    </contour>
    <contour>
      <point x="432" y="1386" type="line"/>
      <point x="104" y="1386" type="line"/>
      <point x="104" y="0" type="line"/>
      <point x="432" y="0" type="line"/>
    </contour>
  </outline>
</glyph>
<glyph name="Cheabkhasian-cy" format="2">
  <advance width="1200"/>
  <unicode hex="04BC"/>
  <anchor x="600" y="0" name="bottom"/>
  <anchor x="941" y="0" name="ogonek"/>
  <anchor x="600" y="1386" name="top"/>
  <outline>
    <contour>
      <point x="1152" y="714" type="curve" smooth="yes"/>
      <point x="1152" y="1151"/>
      <point x="1034" y="1421"/>
      <point x="730" y="1421" type="curve" smooth="yes"/>
      <point x="436" y="1421"/>
      <point x="278" y="1159"/>
      <point x="278" y="686" type="curve" smooth="yes"/>
      <point x="278" y="212"/>
      <point x="425" y="-34"/>
      <point x="748" y="-34" type="curve" smooth="yes"/>
      <point x="877" y="-34"/>
      <point x="996" y="21"/>
      <point x="1095" y="114" type="curve"/>
      <point x="978" y="272" type="line"/>
      <point x="912" y="226"/>
      <point x="848" y="186"/>
      <point x="765" y="186" type="curve" smooth="yes"/>
      <point x="642" y="186"/>
      <point x="567" y="287"/>
      <point x="565" y="571" type="curve"/>
      <point x="1142" y="571" type="line"/>
      <point x="1148" y="611"/>
      <point x="1152" y="671"/>
    </contour>
    <contour>
      <point x="730" y="1204" type="curve" smooth="yes"/>
      <point x="825" y="1204"/>
      <point x="878" y="1112"/>
      <point x="873" y="783" type="curve"/>
      <point x="565" y="783" type="line"/>
      <point x="573" y="1110"/>
      <point x="626" y="1204"/>
    </contour>
    <contour>
      <point x="-10" y="873" type="curve" smooth="yes"/>
      <point x="-10" y="702"/>
      <point x="94" y="579"/>
      <point x="284" y="579" type="curve" smooth="yes"/>
      <point x="388" y="579" type="line"/>
      <point x="388" y="783" type="line"/>
      <point x="285" y="783" type="line" smooth="yes"/>
      <point x="219" y="783"/>
      <point x="191" y="817"/>
      <point x="191" y="889" type="curve" smooth="yes"/>
      <point x="191" y="939"/>
      <point x="205" y="975"/>
      <point x="217" y="1010" type="curve"/>
      <point x="47" y="1077" type="line"/>
      <point x="15" y="1021"/>
      <point x="-10" y="961"/>
    </contour>
  </outline>
</glyph>
<glyph name="cheabkhasian-cy" format="2">
  <advance width="1200"/>
  <unicode hex="04BD"/>
  <anchor x="984" y="0" name="ogonek"/>
  <outline>
    <contour>
      <point x="10" y="711" type="curve" smooth="yes"/>
      <point x="10" y="535"/>
      <point x="128" y="435"/>
      <point x="315" y="435" type="curve" smooth="yes"/>
      <point x="389" y="435" type="line"/>
      <point x="389" y="629" type="line"/>
      <point x="305" y="629" type="line" smooth="yes"/>
      <point x="239" y="629"/>
      <point x="211" y="663"/>
      <point x="211" y="716" type="curve" smooth="yes"/>
      <point x="211" y="766"/>
      <point x="225" y="802"/>
      <point x="237" y="836" type="curve"/>
      <point x="71" y="904" type="line"/>
      <point x="41" y="854"/>
      <point x="10" y="793"/>
    </contour>
    <contour>
      <point x="588" y="439" type="curve"/>
      <point x="1145" y="439" type="line"/>
      <point x="1149" y="471"/>
      <point x="1151" y="516"/>
      <point x="1151" y="552" type="curve" smooth="yes"/>
      <point x="1151" y="894"/>
      <point x="1009" y="1097"/>
      <point x="735" y="1097" type="curve" smooth="yes"/>
      <point x="450" y="1097"/>
      <point x="302" y="844"/>
      <point x="302" y="530" type="curve" smooth="yes"/>
      <point x="302" y="200"/>
      <point x="440" y="-34"/>
      <point x="775" y="-34" type="curve" smooth="yes"/>
      <point x="934" y="-34"/>
      <point x="1046" y="32"/>
      <point x="1124" y="100" type="curve"/>
      <point x="1001" y="256" type="line"/>
      <point x="949" y="220"/>
      <point x="883" y="184"/>
      <point x="787" y="184" type="curve" smooth="yes"/>
      <point x="670" y="184"/>
      <point x="594" y="253"/>
    </contour>
    <contour>
      <point x="733" y="891" type="curve" smooth="yes"/>
      <point x="831" y="891"/>
      <point x="866" y="799"/>
      <point x="868" y="629" type="curve"/>
      <point x="584" y="629" type="line"/>
      <point x="593" y="812"/>
      <point x="642" y="891"/>
    </contour>
  </outline>
</glyph>
<glyph name="kahook-cy" format="2">
  <advance width="1200"/>
  <unicode hex="04C4"/>
  <anchor x="600" y="-443" name="bottom"/>
  <anchor x="600" y="1062" name="top"/>
  <outline>
    <contour>
      <point x="140" y="0" type="line"/>
      <point x="456" y="0" type="line"/>
      <point x="456" y="415" type="line"/>
      <point x="660" y="415" type="line"/>
      <point x="819" y="538" type="line"/>
      <point x="1116" y="1062" type="line"/>
      <point x="818" y="1062" type="line"/>
      <point x="580" y="625" type="line"/>
      <point x="456" y="625" type="line"/>
      <point x="456" y="1062" type="line"/>
      <point x="140" y="1062" type="line"/>
    </contour>
    <contour>
      <point x="771" y="0" type="line"/>
      <point x="1087" y="0" type="line"/>
      <point x="1087" y="291" type="line" smooth="yes"/>
      <point x="1087" y="496"/>
      <point x="976" y="612"/>
      <point x="778" y="612" type="curve"/>
      <point x="660" y="415" type="line"/>
      <point x="734" y="415"/>
      <point x="771" y="379"/>
      <point x="771" y="306" type="curve" smooth="yes"/>
    </contour>
    <component base="hookHELPER" xOffset="309"/>
  </outline>
</glyph>
<glyph name="Eltail-cy" format="2">
  <advance width="1200"/>
  <unicode hex="04C5"/>
  <outline>
    <contour>
      <point x="1040" y="1386" type="line"/>
      <point x="268" y="1386" type="line"/>
      <point x="227" y="945" type="line" smooth="yes"/>
      <point x="173" y="359"/>
      <point x="112" y="274"/>
      <point x="-20" y="176" type="curve"/>
      <point x="108" y="-40" type="line"/>
      <point x="386" y="92"/>
      <point x="471" y="248"/>
      <point x="534" y="913" type="curve" smooth="yes"/>
      <point x="554" y="1136" type="line"/>
      <point x="713" y="1136" type="line"/>
      <point x="713" y="0" type="line"/>
      <point x="1040" y="0" type="line"/>
    </contour>
    <component base="descTail-cy.case" xOffset="710"/>
  </outline>
</glyph>
<glyph name="chekhakassian-cy" format="2">
  <advance width="1200"/>
  <unicode hex="04CC"/>
  <anchor x="600" y="-443" name="bottom"/>
  <anchor x="600" y="1062" name="top"/>
  <outline>
    <contour>
      <point x="1052" y="1062" type="line"/>
      <point x="736" y="1062" type="line"/>
      <point x="736" y="658" type="line"/>
      <point x="688" y="617"/>
      <point x="616" y="589"/>
      <point x="547" y="589" type="curve" smooth="yes"/>
      <point x="466" y="589"/>
      <point x="412" y="624"/>
      <point x="412" y="725" type="curve" smooth="yes"/>
      <point x="412" y="1062" type="line"/>
      <point x="96" y="1062" type="line"/>
      <point x="96" y="685" type="line" smooth="yes"/>
      <point x="96" y="483"/>
      <point x="214" y="356"/>
      <point x="431" y="356" type="curve" smooth="yes"/>
      <point x="557" y="356"/>
      <point x="662" y="394"/>
      <point x="736" y="454" type="curve"/>
      <point x="736" y="0" type="line"/>
      <point x="1052" y="0" type="line"/>
    </contour>
    <component base="descStraight-cy" xScale="-1" xOffset="1346"/>
  </outline>
</glyph>
<glyph name="schwa-cy" format="2">
  <advance width="1200"/>
  <unicode hex="04D9"/>
  <anchor x="621" y="1062" name="top"/>
  <outline>
    <contour>
      <point x="586" y="1097" type="curve" smooth="yes"/>
      <point x="407" y="1097"/>
      <point x="263" y="1042"/>
      <point x="160" y="958" type="curve"/>
      <point x="290" y="781" type="line"/>
      <point x="376" y="846"/>
      <point x="466" y="874"/>
      <point x="572" y="874" type="curve" smooth="yes"/>
      <point x="725" y="874"/>
      <point x="817" y="783"/>
      <point x="810" y="581" type="curve" smooth="yes"/>
      <point x="810" y="483" type="line" smooth="yes"/>
      <point x="816" y="272"/>
      <point x="739" y="190"/>
      <point x="596" y="190" type="curve" smooth="yes"/>
      <point x="457" y="190"/>
      <point x="386" y="277"/>
      <point x="380" y="424" type="curve" smooth="yes"/>
      <point x="380" y="427"/>
      <point x="380" y="431"/>
      <point x="380" y="435" type="curve"/>
      <point x="842" y="435" type="line"/>
      <point x="842" y="625" type="line"/>
      <point x="90" y="625" type="line"/>
      <point x="86" y="591"/>
      <point x="84" y="546"/>
      <point x="84" y="512" type="curve" smooth="yes"/>
      <point x="84" y="166"/>
      <point x="283" y="-34"/>
      <point x="596" y="-34" type="curve" smooth="yes"/>
      <point x="934" y="-34"/>
      <point x="1116" y="217"/>
      <point x="1116" y="534" type="curve" smooth="yes"/>
      <point x="1116" y="864"/>
      <point x="947" y="1097"/>
    </contour>
  </outline>
</glyph>
<glyph name="Dzeabkhasian-cy" format="2">
  <advance width="1200"/>
  <unicode hex="04E0"/>
  <outline>
    <contour>
      <point x="562" y="-40" type="curve" smooth="yes"/>
      <point x="909" y="-40"/>
      <point x="1118" y="168"/>
      <point x="1118" y="426" type="curve" smooth="yes"/>
      <point x="1118" y="675"/>
      <point x="953" y="804"/>
      <point x="697" y="804" type="curve" smooth="yes"/>
      <point x="636" y="804" type="line"/>
      <point x="325" y="613" type="line"/>
      <point x="518" y="613" type="line" smooth="yes"/>
      <point x="677" y="613"/>
      <point x="779" y="570"/>
      <point x="779" y="422" type="curve" smooth="yes"/>
      <point x="779" y="263"/>
      <point x="682" y="200"/>
      <point x="548" y="200" type="curve" smooth="yes"/>
      <point x="426" y="200"/>
      <point x="340" y="234"/>
      <point x="234" y="314" type="curve"/>
      <point x="82" y="140" type="line"/>
      <point x="194" y="40"/>
      <point x="321" y="-40"/>
    </contour>
    <contour>
      <point x="325" y="786" type="line"/>
      <point x="325" y="613" type="line"/>
      <point x="570" y="693" type="line"/>
      <point x="1045" y="1150" type="line"/>
      <point x="1045" y="1386" type="line"/>
      <point x="161" y="1386" type="line"/>
      <point x="161" y="1140" type="line"/>
      <point x="697" y="1140" type="line"/>
    </contour>
  </outline>
</glyph>
<glyph name="Obarred-cy" format="2">
  <advance width="1200"/>
  <unicode hex="04E8"/>
  <anchor x="600" y="0" name="bottom"/>
  <anchor x="600" y="1386" name="top"/>
  <outline>
    <contour>
      <point x="1155" y="694" type="curve" smooth="yes"/>
      <point x="1155" y="1143"/>
      <point x="963" y="1421"/>
      <point x="600" y="1421" type="curve" smooth="yes"/>
      <point x="237" y="1421"/>
      <point x="45" y="1133"/>
      <point x="45" y="694" type="curve" smooth="yes"/>
      <point x="45" y="244"/>
      <point x="237" y="-34"/>
      <point x="600" y="-34" type="curve" smooth="yes"/>
      <point x="963" y="-34"/>
      <point x="1155" y="254"/>
    </contour>
    <contour>
      <point x="600" y="206" type="curve" smooth="yes"/>
      <point x="450" y="206"/>
      <point x="379" y="331"/>
      <point x="371" y="603" type="curve"/>
      <point x="829" y="603" type="line"/>
      <point x="819" y="333"/>
      <point x="754" y="206"/>
    </contour>
    <contour>
      <point x="600" y="1182" type="curve" smooth="yes"/>
      <point x="746" y="1182"/>
      <point x="814" y="1065"/>
      <point x="827" y="803" type="curve"/>
      <point x="371" y="803" type="line"/>
      <point x="386" y="1065"/>
      <point x="454" y="1182"/>
    </contour>
  </outline>
</glyph>
<glyph name="obarred-cy" format="2">
  <advance width="1200"/>
  <unicode hex="04E9"/>
  <anchor x="602" y="1062" name="top"/>
  <outline>
    <contour>
      <point x="600" y="1097" type="curve" smooth="yes"/>
      <point x="275" y="1097"/>
      <point x="84" y="869"/>
      <point x="84" y="532" type="curve" smooth="yes"/>
      <point x="84" y="175"/>
      <point x="275" y="-34"/>
      <point x="600" y="-34" type="curve" smooth="yes"/>
      <point x="925" y="-34"/>
      <point x="1116" y="179"/>
      <point x="1116" y="534" type="curve" smooth="yes"/>
      <point x="1116" y="874"/>
      <point x="927" y="1097"/>
    </contour>
    <contour>
      <point x="804" y="447" type="line"/>
      <point x="788" y="263"/>
      <point x="717" y="194"/>
      <point x="600" y="194" type="curve" smooth="yes"/>
      <point x="479" y="194"/>
      <point x="410" y="263"/>
      <point x="394" y="447" type="curve"/>
    </contour>
    <contour>
      <point x="600" y="870" type="curve" smooth="yes"/>
      <point x="717" y="870"/>
      <point x="786" y="797"/>
      <point x="802" y="625" type="curve"/>
      <point x="396" y="625" type="line"/>
      <point x="412" y="797"/>
      <point x="481" y="870"/>
    </contour>
  </outline>
</glyph>
<glyph name="Gestrokehook-cy" format="2">
  <advance width="1200"/>
  <unicode hex="04FA"/>
  <outline>
    <contour>
      <point x="388" y="243" type="line"/>
      <point x="388" y="0" type="line"/>
      <point x="794" y="0" type="line"/>
      <point x="794" y="243" type="line"/>
    </contour>
    <component base="Ghestroke-cy" xOffset="88"/>
    <component base="hookHELPER.case" xOffset="4"/>
  </outline>
</glyph>
<glyph name="gestrokehook-cy" format="2">
  <advance width="1200"/>
  <unicode hex="04FB"/>
  <anchor x="600" y="-443" name="bottom"/>
  <anchor x="600" y="1062" name="top"/>
  <outline>
    <contour>
      <point x="382" y="233" type="line"/>
      <point x="382" y="0" type="line"/>
      <point x="749" y="0" type="line"/>
      <point x="749" y="233" type="line"/>
    </contour>
    <component base="ghestroke-cy"/>
    <component base="hookHELPER" xOffset="-30"/>
  </outline>
</glyph>
<glyph name="hastroke-cy" format="2">
  <advance width="1200"/>
  <unicode hex="04FF"/>
  <anchor x="600" y="0" name="bottom"/>
  <anchor x="600" y="1062" name="top"/>
  <outline>
    <contour>
      <point x="386" y="0" type="line"/>
      <point x="596" y="417" type="line"/>
      <point x="798" y="0" type="line"/>
      <point x="1156" y="0" type="line"/>
      <point x="790" y="570" type="line"/>
      <point x="1102" y="1062" type="line"/>
      <point x="770" y="1062" type="line"/>
      <point x="596" y="697" type="line"/>
      <point x="428" y="1062" type="line"/>
      <point x="78" y="1062" type="line"/>
      <point x="408" y="558" type="line"/>
      <point x="44" y="0" type="line"/>
    </contour>
    <component base="hyphen" xScale="1.2" yScale="0.7" xOffset="-118" yOffset="134"/>
  </outline>
</glyph>
<glyph name="komizje-cy" format="2">
  <advance width="1200"/>
  <unicode hex="0505"/>
  <anchor x="600" y="0" name="bottom"/>
  <anchor x="600" y="1062" name="top"/>
  <outline>
    <contour>
      <point x="1154" y="758" type="curve"/>
      <point x="851" y="758" type="line"/>
      <point x="859" y="678"/>
      <point x="863" y="594"/>
      <point x="863" y="510" type="curve" smooth="yes"/>
      <point x="863" y="284"/>
      <point x="834" y="190"/>
      <point x="753" y="190" type="curve" smooth="yes"/>
      <point x="704" y="190"/>
      <point x="659" y="218"/>
      <point x="617" y="299" type="curve" smooth="yes"/>
      <point x="548" y="421" type="line"/>
      <point x="655" y="480"/>
      <point x="725" y="563"/>
      <point x="725" y="715" type="curve" smooth="yes"/>
      <point x="725" y="932"/>
      <point x="564" y="1062"/>
      <point x="235" y="1062" type="curve" smooth="yes"/>
      <point x="8" y="1062" type="line"/>
      <point x="6" y="844" type="line"/>
      <point x="239" y="844" type="line" smooth="yes"/>
      <point x="341" y="844"/>
      <point x="401" y="800"/>
      <point x="401" y="709" type="curve" smooth="yes"/>
      <point x="401" y="615"/>
      <point x="348" y="567"/>
      <point x="234" y="567" type="curve" smooth="yes"/>
      <point x="94" y="567" type="line"/>
      <point x="94" y="342" type="line"/>
      <point x="269" y="342" type="line"/>
      <point x="324" y="238" type="line" smooth="yes"/>
      <point x="434" y="29"/>
      <point x="573" y="-34"/>
      <point x="749" y="-34" type="curve" smooth="yes"/>
      <point x="1007" y="-34"/>
      <point x="1166" y="134"/>
      <point x="1166" y="512" type="curve" smooth="yes"/>
      <point x="1166" y="600"/>
      <point x="1162" y="680"/>
    </contour>
  </outline>
</glyph>
<glyph name="Komidzje-cy" format="2">
  <advance width="1200"/>
  <unicode hex="0506"/>
  <anchor x="600" y="-443" name="bottom"/>
  <anchor x="600" y="1386" name="top"/>
  <outline>
    <contour>
      <point x="115" y="1386" type="line"/>
      <point x="115" y="1156" type="line"/>
      <point x="453" y="1156" type="line" smooth="yes"/>
      <point x="607" y="1156"/>
      <point x="686" y="1098"/>
      <point x="686" y="965" type="curve" smooth="yes"/>
      <point x="686" y="818"/>
      <point x="609" y="755"/>
      <point x="467" y="755" type="curve" smooth="yes"/>
      <point x="175" y="755" type="line"/>
      <point x="175" y="530" type="line"/>
      <point x="438" y="530" type="line"/>
      <point x="738" y="0" type="line"/>
      <point x="1109" y="0" type="line"/>
      <point x="746" y="585" type="line"/>
      <point x="901" y="646"/>
      <point x="1024" y="766"/>
      <point x="1024" y="965" type="curve" smooth="yes"/>
      <point x="1024" y="1252"/>
      <point x="830" y="1386"/>
      <point x="453" y="1386" type="curve" smooth="yes"/>
    </contour>
    <component base="descStraight-cy.case" xOffset="349"/>
  </outline>
</glyph>
<glyph name="Kominje-cy" format="2">
  <advance width="1200"/>
  <unicode hex="050A"/>
  <anchor x="600" y="0" name="bottom"/>
  <anchor x="600" y="1386" name="top"/>
  <outline>
    <contour>
      <point x="490" y="529" type="line"/>
      <point x="756" y="529" type="line"/>
      <point x="756" y="1386" type="line"/>
      <point x="490" y="1386" type="line"/>
      <point x="490" y="814" type="line"/>
      <point x="326" y="814" type="line"/>
      <point x="326" y="1386" type="line"/>
      <point x="61" y="1386" type="line"/>
      <point x="61" y="0" type="line"/>
      <point x="326" y="0" type="line"/>
      <point x="326" y="580" type="line"/>
      <point x="490" y="580" type="line"/>
    </contour>
    <contour>
      <point x="811" y="-34" type="curve" smooth="yes"/>
      <point x="1061" y="-34"/>
      <point x="1184" y="134"/>
      <point x="1184" y="492" type="curve" smooth="yes"/>
      <point x="1184" y="600"/>
      <point x="1180" y="680"/>
      <point x="1172" y="758" type="curve"/>
      <point x="908" y="758" type="line"/>
      <point x="914" y="678"/>
      <point x="918" y="594"/>
      <point x="918" y="490" type="curve" smooth="yes"/>
      <point x="918" y="274"/>
      <point x="885" y="180"/>
      <point x="821" y="180" type="curve" smooth="yes"/>
      <point x="784" y="180"/>
      <point x="756" y="207"/>
      <point x="756" y="279" type="curve" smooth="yes"/>
      <point x="756" y="1062" type="line"/>
      <point x="490" y="1062" type="line"/>
      <point x="490" y="298" type="line" smooth="yes"/>
      <point x="490" y="78"/>
      <point x="641" y="-34"/>
    </contour>
  </outline>
</glyph>
<glyph name="Komitje-cy" format="2">
  <advance width="1200"/>
  <unicode hex="050E"/>
  <anchor x="600" y="0" name="bottom"/>
  <anchor x="600" y="1386" name="top"/>
  <outline>
    <contour>
      <point x="333" y="724" type="line"/>
      <point x="661" y="724" type="line"/>
      <point x="661" y="1140" type="line"/>
      <point x="973" y="1140" type="line"/>
      <point x="1007" y="1386" type="line"/>
      <point x="24" y="1386" type="line"/>
      <point x="24" y="1140" type="line"/>
      <point x="333" y="1140" type="line"/>
    </contour>
    <contour>
      <point x="724" y="-34" type="curve" smooth="yes"/>
      <point x="982" y="-34"/>
      <point x="1159" y="134"/>
      <point x="1159" y="493" type="curve" smooth="yes"/>
      <point x="1159" y="600"/>
      <point x="1155" y="680"/>
      <point x="1147" y="758" type="curve"/>
      <point x="837" y="758" type="line"/>
      <point x="843" y="678"/>
      <point x="847" y="594"/>
      <point x="847" y="491" type="curve" smooth="yes"/>
      <point x="847" y="294"/>
      <point x="815" y="200"/>
      <point x="734" y="200" type="curve" smooth="yes"/>
      <point x="690" y="200"/>
      <point x="661" y="227"/>
      <point x="661" y="300" type="curve" smooth="yes"/>
      <point x="661" y="724" type="line"/>
      <point x="335" y="724" type="line"/>
      <point x="335" y="381" type="line" smooth="yes"/>
      <point x="335" y="98"/>
      <point x="505" y="-34"/>
    </contour>
  </outline>
</glyph>
<glyph name="reversedze-cy" format="2">
  <advance width="1200"/>
  <unicode hex="0511"/>
  <outline>
    <contour>
      <point x="879" y="647" type="line"/>
      <point x="671" y="647" type="line" smooth="yes"/>
      <point x="558" y="647"/>
      <point x="499" y="694"/>
      <point x="499" y="766" type="curve" smooth="yes"/>
      <point x="499" y="841"/>
      <point x="572" y="878"/>
      <point x="683" y="878" type="curve" smooth="yes"/>
      <point x="789" y="878"/>
      <point x="892" y="852"/>
      <point x="978" y="799" type="curve"/>
      <point x="1114" y="967" type="line"/>
      <point x="991" y="1053"/>
      <point x="841" y="1097"/>
      <point x="663" y="1097" type="curve" smooth="yes"/>
      <point x="389" y="1097"/>
      <point x="181" y="974"/>
      <point x="181" y="792" type="curve" smooth="yes"/>
      <point x="181" y="664"/>
      <point x="269" y="594"/>
      <point x="436" y="562" type="curve"/>
      <point x="250" y="546"/>
      <point x="127" y="466"/>
      <point x="127" y="304" type="curve" smooth="yes"/>
      <point x="127" y="80"/>
      <point x="356" y="-34"/>
      <point x="663" y="-34" type="curve" smooth="yes"/>
      <point x="875" y="-34"/>
      <point x="1033" y="23"/>
      <point x="1148" y="106" type="curve"/>
      <point x="1010" y="287" type="line"/>
      <point x="900" y="222"/>
      <point x="800" y="192"/>
      <point x="669" y="192" type="curve" smooth="yes"/>
      <point x="526" y="192"/>
      <point x="455" y="243"/>
      <point x="455" y="324" type="curve" smooth="yes"/>
      <point x="455" y="401"/>
      <point x="518" y="445"/>
      <point x="649" y="445" type="curve" smooth="yes"/>
      <point x="861" y="445" type="line"/>
    </contour>
  </outline>
</glyph>
<glyph name="lha-cy" format="2">
  <advance width="1200"/>
  <unicode hex="0515"/>
  <anchor x="600" y="0" name="bottom"/>
  <anchor x="600" y="1062" name="top"/>
  <outline>
    <contour>
      <point x="395" y="0" type="line"/>
      <point x="664" y="0" type="line"/>
      <point x="798" y="397" type="line"/>
      <point x="942" y="0" type="line"/>
      <point x="1215" y="0" type="line"/>
      <point x="974" y="570" type="line"/>
      <point x="1179" y="1062" type="line"/>
      <point x="920" y="1062" type="line"/>
      <point x="808" y="722" type="line"/>
      <point x="691" y="1062" type="line"/>
      <point x="419" y="1062" type="line"/>
      <point x="636" y="558" type="line"/>
    </contour>
    <contour>
      <point x="129" y="-40" type="line"/>
      <point x="279" y="63"/>
      <point x="361" y="156"/>
      <point x="391" y="584" type="curve" smooth="yes"/>
      <point x="409" y="846" type="line"/>
      <point x="513" y="846" type="line"/>
      <point x="690" y="1062" type="line"/>
      <point x="163" y="1062" type="line"/>
      <point x="128" y="591" type="line" smooth="yes"/>
      <point x="105" y="301"/>
      <point x="59" y="193"/>
      <point x="-5" y="135" type="curve"/>
    </contour>
  </outline>
</glyph>
<glyph name="Yae-cy" format="2">
  <advance width="1200"/>
  <unicode hex="0518"/>
  <anchor x="600" y="0" name="bottom"/>
  <anchor x="600" y="1386" name="top"/>
  <outline>
    <contour>
      <point x="-2" y="0" type="line"/>
      <point x="317" y="0" type="line"/>
      <point x="487" y="501" type="line"/>
      <point x="547" y="501" type="line"/>
      <point x="547" y="0" type="line"/>
      <point x="836" y="0" type="line"/>
      <point x="836" y="1386" type="line"/>
      <point x="512" y="1386" type="line" smooth="yes"/>
      <point x="241" y="1386"/>
      <point x="28" y="1214"/>
      <point x="28" y="941" type="curve" smooth="yes"/>
      <point x="28" y="749"/>
      <point x="110" y="643"/>
      <point x="233" y="563" type="curve"/>
    </contour>
    <contour>
      <point x="501" y="719" type="line" smooth="yes"/>
      <point x="402" y="719"/>
      <point x="331" y="784"/>
      <point x="331" y="939" type="curve" smooth="yes"/>
      <point x="331" y="1091"/>
      <point x="402" y="1166"/>
      <point x="508" y="1166" type="curve" smooth="yes"/>
      <point x="547" y="1166" type="line"/>
      <point x="547" y="719" type="line"/>
    </contour>
    <contour>
      <point x="547" y="0" type="line"/>
      <point x="1196" y="0" type="line"/>
      <point x="1196" y="230" type="line"/>
      <point x="836" y="230" type="line"/>
      <point x="836" y="593" type="line"/>
      <point x="1117" y="593" type="line"/>
      <point x="1117" y="815" type="line"/>
      <point x="836" y="815" type="line"/>
      <point x="836" y="1162" type="line"/>
      <point x="1162" y="1162" type="line"/>
      <point x="1196" y="1386" type="line"/>
      <point x="547" y="1386" type="line"/>
    </contour>
  </outline>
</glyph>
<glyph name="aleutka-cy" format="2">
  <advance width="1200"/>
  <unicode hex="051F"/>
  <anchor x="600" y="0" name="bottom"/>
  <anchor x="600" y="1062" name="top"/>
  <outline>
    <contour>
      <point x="535" y="851" type="line"/>
      <point x="1078" y="601" type="line"/>
      <point x="1150" y="754" type="line"/>
      <point x="607" y="1004" type="line"/>
    </contour>
    <component base="ka-cy" xOffset="2"/>
  </outline>
</glyph>
<glyph name="psilivaria" format="2">
  <advance width="1200"/>
  <unicode hex="1FCD"/>
  <anchor x="591" y="1062" name="_top"/>
  <anchor x="1004" y="1664" name="_topleft"/>
  <anchor x="440" y="1674" name="top"/>
  <outline>
    <contour>
      <point x="861" y="1672" type="line"/>
      <point x="596" y="1602" type="line"/>
      <point x="769" y="1162" type="line"/>
      <point x="944" y="1199" type="line"/>
    </contour>
    <component base="psili" xOffset="-203" yOffset="-4"/>
  </outline>
</glyph>
<glyph name="dasiavaria" format="2">
  <advance width="1200"/>
  <unicode hex="1FDD"/>
  <anchor x="642" y="1062" name="_top"/>
  <anchor x="1004" y="1664" name="_topleft"/>
  <anchor x="646" y="1670" name="top"/>
  <outline>
    <contour>
      <point x="861" y="1672" type="line"/>
      <point x="596" y="1602" type="line"/>
      <point x="769" y="1162" type="line"/>
      <point x="944" y="1199" type="line"/>
    </contour>
    <component base="dasia" xOffset="-203" yOffset="-4"/>
  </outline>
</glyph>
<glyph name="dasia" format="2">
  <advance width="1200"/>
  <unicode hex="1FFE"/>
  <anchor x="684" y="1062" name="_top"/>
  <anchor x="853" y="1644" name="_topleft"/>
  <anchor x="623" y="1674" name="top"/>
  <outline>
    <contour>
      <point x="598" y="1678" type="curve" smooth="yes"/>
      <point x="509" y="1678"/>
      <point x="441" y="1613"/>
      <point x="441" y="1523" type="curve" smooth="yes"/>
      <point x="441" y="1476"/>
      <point x="459" y="1419"/>
      <point x="489" y="1359" type="curve" smooth="yes"/>
      <point x="587" y="1164" type="line"/>
      <point x="745" y="1164" type="line"/>
      <point x="691" y="1395" type="line"/>
      <point x="729" y="1424"/>
      <point x="757" y="1466"/>
      <point x="757" y="1523" type="curve" smooth="yes"/>
      <point x="757" y="1609"/>
      <point x="689" y="1678"/>
    </contour>
  </outline>
</glyph>
<glyph name="quotedblleft" format="2">
  <advance width="1200"/>
  <unicode hex="201C"/>
  <outline>
    <contour>
      <point x="549" y="1073" type="curve" smooth="yes"/>
      <point x="549" y="1140"/>
      <point x="519" y="1190"/>
      <point x="472" y="1224" type="curve"/>
      <point x="558" y="1578" type="line"/>
      <point x="379" y="1578" type="line"/>
      <point x="236" y="1281" type="line" smooth="yes"/>
      <point x="191" y="1186"/>
      <point x="175" y="1130"/>
      <point x="175" y="1073" type="curve" smooth="yes"/>
      <point x="175" y="971"/>
      <point x="253" y="892"/>
      <point x="360" y="892" type="curve" smooth="yes"/>
      <point x="468" y="892"/>
      <point x="549" y="971"/>
    </contour>
    <contour>
      <point x="1016" y="1073" type="curve" smooth="yes"/>
      <point x="1016" y="1140"/>
      <point x="985" y="1190"/>
      <point x="937" y="1224" type="curve"/>
      <point x="1025" y="1578" type="line"/>
      <point x="846" y="1578" type="line"/>
      <point x="704" y="1281" type="line" smooth="yes"/>
      <point x="656" y="1186"/>
      <point x="640" y="1130"/>
      <point x="640" y="1073" type="curve" smooth="yes"/>
      <point x="640" y="971"/>
      <point x="720" y="892"/>
      <point x="827" y="892" type="curve" smooth="yes"/>
      <point x="933" y="892"/>
      <point x="1016" y="971"/>
    </contour>
  </outline>
</glyph>
<glyph name="bullet" format="2">
  <advance width="1200"/>
  <unicode hex="2022"/>
  <outline>
    <contour>
      <point x="600" y="399" type="curve" smooth="yes"/>
      <point x="763" y="399"/>
      <point x="885" y="519"/>
      <point x="885" y="682" type="curve" smooth="yes"/>
      <point x="885" y="845"/>
      <point x="763" y="967"/>
      <point x="600" y="967" type="curve" smooth="yes"/>
      <point x="437" y="967"/>
      <point x="315" y="847"/>
      <point x="315" y="684" type="curve" smooth="yes"/>
      <point x="315" y="523"/>
      <point x="437" y="399"/>
    </contour>
  </outline>
</glyph>
<glyph name="euro" format="2">
  <advance width="1200"/>
  <unicode hex="20AC"/>
  <outline>
    <contour>
      <point x="817" y="1421" type="curve" smooth="yes"/>
      <point x="522" y="1421"/>
      <point x="318" y="1238"/>
      <point x="252" y="931" type="curve"/>
      <point x="108" y="931" type="line"/>
      <point x="66" y="767" type="line"/>
      <point x="228" y="767" type="line"/>
      <point x="228" y="625" type="line"/>
      <point x="106" y="625" type="line"/>
      <point x="64" y="459" type="line"/>
      <point x="248" y="459" type="line"/>
      <point x="306" y="142"/>
      <point x="492" y="-34"/>
      <point x="799" y="-34" type="curve" smooth="yes"/>
      <point x="907" y="-34"/>
      <point x="1003" y="-8"/>
      <point x="1102" y="40" type="curve"/>
      <point x="1102" y="292" type="line"/>
      <point x="1023" y="238"/>
      <point x="931" y="200"/>
      <point x="822" y="200" type="curve" smooth="yes"/>
      <point x="673" y="200"/>
      <point x="593" y="277"/>
      <point x="562" y="459" type="curve"/>
      <point x="865" y="459" type="line"/>
      <point x="909" y="625" type="line"/>
      <point x="547" y="625" type="line"/>
      <point x="547" y="767" type="line"/>
      <point x="939" y="767" type="line"/>
      <point x="981" y="931" type="line"/>
      <point x="568" y="931" type="line"/>
      <point x="606" y="1115"/>
      <point x="699" y="1190"/>
      <point x="832" y="1190" type="curve" smooth="yes"/>
      <point x="918" y="1190"/>
      <point x="967" y="1172"/>
      <point x="1041" y="1122" type="curve"/>
      <point x="1158" y="1318" type="line"/>
      <point x="1068" y="1378"/>
      <point x="978" y="1421"/>
    </contour>
  </outline>
</glyph>
<glyph name="trademark" format="2">
  <advance width="1200"/>
  <unicode hex="2122"/>
  <outline>
    <contour>
      <point x="1161" y="1392" type="line"/>
      <point x="915" y="1392" type="line"/>
      <point x="831" y="904" type="line"/>
      <point x="742" y="1392" type="line"/>
      <point x="-27" y="1392" type="line"/>
      <point x="-27" y="1219" type="line"/>
      <point x="134" y="1219" type="line"/>
      <point x="134" y="590" type="line"/>
      <point x="350" y="590" type="line"/>
      <point x="350" y="1219" type="line"/>
      <point x="492" y="1219" type="line"/>
      <point x="470" y="590" type="line"/>
      <point x="666" y="590" type="line"/>
      <point x="670" y="859" type="line" smooth="yes"/>
      <point x="672" y="984"/>
      <point x="670" y="1062"/>
      <point x="652" y="1161" type="curve"/>
      <point x="660" y="1161" type="line"/>
      <point x="749" y="730" type="line"/>
      <point x="912" y="730" type="line"/>
      <point x="998" y="1161" type="line"/>
      <point x="1006" y="1161" type="line"/>
      <point x="989" y="1058"/>
      <point x="987" y="980"/>
      <point x="989" y="859" type="curve" smooth="yes"/>
      <point x="993" y="590" type="line"/>
      <point x="1187" y="590" type="line"/>
    </contour>
  </outline>
</glyph>
<glyph name="arrowleft" format="2">
  <advance width="1200"/>
  <unicode hex="2190"/>
  <outline>
    <contour>
      <point x="602" y="1330" type="line"/>
      <point x="-3" y="658" type="line"/>
      <point x="602" y="-14" type="line"/>
      <point x="809" y="164" type="line"/>
      <point x="669" y="316" type="line" smooth="yes"/>
      <point x="589" y="405"/>
      <point x="514" y="474"/>
      <point x="432" y="529" type="curve"/>
      <point x="1203" y="529" type="line"/>
      <point x="1203" y="787" type="line"/>
      <point x="429" y="787" type="line"/>
      <point x="514" y="840"/>
      <point x="586" y="911"/>
      <point x="669" y="1000" type="curve" smooth="yes"/>
      <point x="809" y="1152" type="line"/>
    </contour>
  </outline>
</glyph>
<glyph name="arrowboth" format="2">
  <advance width="1200"/>
  <unicode hex="2194"/>
  <outline>
    <contour>
      <point x="1453" y="658" type="line"/>
      <point x="885" y="1290" type="line"/>
      <point x="677" y="1112" type="line"/>
      <point x="781" y="1000" type="line" smooth="yes"/>
      <point x="864" y="911"/>
      <point x="937" y="840"/>
      <point x="1022" y="787" type="curve"/>
      <point x="178" y="787" type="line"/>
      <point x="263" y="840"/>
      <point x="336" y="911"/>
      <point x="419" y="1000" type="curve" smooth="yes"/>
      <point x="523" y="1112" type="line"/>
      <point x="315" y="1290" type="line"/>
      <point x="-253" y="658" type="line"/>
      <point x="323" y="18" type="line"/>
      <point x="530" y="196" type="line"/>
      <point x="419" y="316" type="line" smooth="yes"/>
      <point x="338" y="405"/>
      <point x="263" y="474"/>
      <point x="182" y="529" type="curve"/>
      <point x="1018" y="529" type="line"/>
      <point x="937" y="474"/>
      <point x="864" y="405"/>
      <point x="781" y="316" type="curve" smooth="yes"/>
      <point x="672" y="196" type="line"/>
      <point x="879" y="18" type="line"/>
    </contour>
  </outline>
</glyph>
<glyph name="clear" format="2">
  <advance width="1200"/>
  <unicode hex="2327"/>
  <outline>
    <contour>
      <point x="1260" y="1346" type="curve" smooth="yes"/>
      <point x="-60" y="1346" type="line" smooth="yes"/>
      <point x="-120" y="1346"/>
      <point x="-160" y="1306"/>
      <point x="-160" y="1246" type="curve" smooth="yes"/>
      <point x="-160" y="156" type="line" smooth="yes"/>
      <point x="-160" y="96"/>
      <point x="-120" y="56"/>
      <point x="-60" y="56" type="curve" smooth="yes"/>
      <point x="1260" y="56" type="line"/>
      <point x="1320" y="56"/>
      <point x="1360" y="96"/>
      <point x="1360" y="156" type="curve" smooth="yes"/>
      <point x="1360" y="1246" type="line" smooth="yes"/>
      <point x="1360" y="1306"/>
      <point x="1320" y="1346"/>
    </contour>
    <contour>
      <point x="868" y="1114" type="line"/>
      <point x="1002" y="976" type="line"/>
      <point x="734" y="710" type="line"/>
      <point x="1002" y="442" type="line"/>
      <point x="868" y="308" type="line"/>
      <point x="600" y="576" type="line"/>
      <point x="332" y="308" type="line"/>
      <point x="198" y="442" type="line"/>
      <point x="466" y="710" type="line"/>
      <point x="198" y="976" type="line"/>
      <point x="332" y="1114" type="line"/>
      <point x="600" y="844" type="line"/>
    </contour>
  </outline>
</glyph>
<glyph name="boxLightDoubleDashHorizontal" format="2">
  <advance width="1200"/>
  <unicode hex="254C"/>
  <outline>
    <contour>
      <point x="1120" y="780" type="line"/>
      <point x="680" y="780" type="line"/>
      <point x="680" y="620" type="line"/>
      <point x="1120" y="620" type="line"/>
    </contour>
    <contour>
      <point x="520" y="780" type="line"/>
      <point x="80" y="780" type="line"/>
      <point x="80" y="620" type="line"/>
      <point x="520" y="620" type="line"/>
    </contour>
  </outline>
</glyph>
<glyph name="boxLightDiagonalCross" format="2">
  <advance width="1200"/>
  <unicode hex="2573"/>
  <outline>
    <contour>
      <point x="974" y="1188" type="line"/>
      <point x="600" y="814" type="line"/>
      <point x="226" y="1188" type="line"/>
      <point x="112" y="1074" type="line"/>
      <point x="486" y="700" type="line"/>
      <point x="112" y="326" type="line"/>
      <point x="226" y="212" type="line"/>
      <point x="600" y="586" type="line"/>
      <point x="974" y="212" type="line"/>
      <point x="1088" y="326" type="line"/>
      <point x="714" y="700" type="line"/>
      <point x="1088" y="1074" type="line"/>
    </contour>
  </outline>
</glyph>
<glyph name="upperLeftDiagonalHalfBlackSquare" format="2">
  <advance width="1200"/>
  <unicode hex="25E9"/>
  <outline>
    <contour>
      <point x="1140" y="1080" type="line"/>
      <point x="60" y="1080" type="line"/>
      <point x="60" y="0" type="line"/>
      <point x="1140" y="0" type="line"/>
    </contour>
    <contour>
      <point x="980" y="920" type="line"/>
      <point x="980" y="160" type="line"/>
      <point x="220" y="160" type="line"/>
    </contour>
  </outline>
</glyph>
<glyph name="ballotBox" format="2">
  <advance width="1200"/>
  <unicode hex="2610"/>
  <outline>
    <contour>
      <point x="1179" y="1119" type="line"/>
      <point x="21" y="1119" type="line"/>
      <point x="21" y="-39" type="line"/>
      <point x="1179" y="-39" type="line"/>
    </contour>
    <contour>
      <point x="927" y="887" type="line"/>
      <point x="927" y="193" type="line"/>
      <point x="273" y="193" type="line"/>
      <point x="273" y="887" type="line"/>
    </contour>
  </outline>
</glyph>
<glyph name="ballotBoxWithX" format="2">
  <advance width="1200"/>
  <unicode hex="2612"/>
  <outline>
    <contour>
      <point x="754" y="851" type="line"/>
      <point x="600" y="697" type="line"/>
      <point x="442" y="851" type="line"/>
      <point x="289" y="698" type="line"/>
      <point x="447" y="544" type="line"/>
      <point x="289" y="386" type="line"/>
      <point x="442" y="233" type="line"/>
      <point x="600" y="391" type="line"/>
      <point x="754" y="233" type="line"/>
      <point x="907" y="386" type="line"/>
      <point x="753" y="544" type="line"/>
      <point x="907" y="698" type="line"/>
    </contour>
    <component base="ballotBox"/>
  </outline>
</glyph>
<glyph name="club" format="2">
  <advance width="1200"/>
  <unicode hex="2663"/>
  <outline>
    <contour>
      <point x="600" y="1078" type="curve" smooth="yes"/>
      <point x="456" y="1078"/>
      <point x="360" y="1016"/>
      <point x="360" y="888" type="curve" smooth="yes"/>
      <point x="360" y="780"/>
      <point x="414" y="728"/>
      <point x="468" y="684" type="curve"/>
      <point x="416" y="706"/>
      <point x="394" y="712"/>
      <point x="334" y="712" type="curve" smooth="yes"/>
      <point x="206" y="712"/>
      <point x="140" y="624"/>
      <point x="140" y="478" type="curve" smooth="yes"/>
      <point x="140" y="354"/>
      <point x="228" y="268"/>
      <point x="348" y="268" type="curve" smooth="yes"/>
      <point x="442" y="268"/>
      <point x="508" y="308"/>
      <point x="564" y="400" type="curve"/>
      <point x="532" y="130" type="line"/>
      <point x="220" y="130" type="line"/>
      <point x="140" y="0" type="line"/>
      <point x="1060" y="0" type="line"/>
      <point x="980" y="130" type="line"/>
      <point x="668" y="130" type="line"/>
      <point x="636" y="400" type="line"/>
      <point x="690" y="308"/>
      <point x="756" y="268"/>
      <point x="852" y="268" type="curve" smooth="yes"/>
      <point x="972" y="268"/>
      <point x="1060" y="354"/>
      <point x="1060" y="478" type="curve" smooth="yes"/>
      <point x="1060" y="624"/>
      <point x="994" y="712"/>
      <point x="866" y="712" type="curve" smooth="yes"/>
      <point x="806" y="712"/>
      <point x="784" y="706"/>
      <point x="732" y="684" type="curve"/>
      <point x="786" y="728"/>
      <point x="840" y="780"/>
      <point x="840" y="888" type="curve" smooth="yes"/>
      <point x="840" y="1016"/>
      <point x="744" y="1078"/>
    </contour>
  </outline>
</glyph>
<glyph name="checkmark" format="2">
  <advance width="1200"/>
  <unicode hex="2713"/>
  <anchor x="600" y="0" name="bottom"/>
  <anchor x="600" y="1386" name="top"/>
  <outline>
    <contour>
      <point x="566" y="317" type="line"/>
      <point x="390" y="866" type="line"/>
      <point x="78" y="866" type="line"/>
      <point x="376" y="0" type="line"/>
      <point x="763" y="0" type="line"/>
      <point x="1139" y="1386" type="line"/>
      <point x="846" y="1386" type="line"/>
    </contour>
  </outline>
</glyph>
<glyph name="uniE0A1" format="2">
  <advance width="1200"/>
  <unicode hex="E0A1"/>
  <outline>
    <contour>
      <point x="240" y="1616" type="line"/>
      <point x="240" y="816" type="line"/>
      <point x="934" y="816" type="line"/>
      <point x="957" y="1028" type="line"/>
      <point x="470" y="1028" type="line"/>
      <point x="470" y="1616" type="line"/>
    </contour>
    <contour>
      <point x="429" y="580" type="curve"/>
      <point x="635" y="-100" type="line"/>
      <point x="950" y="-100" type="line"/>
      <point x="950" y="700" type="line"/>
      <point x="751" y="700" type="line"/>
      <point x="751" y="338" type="line" smooth="yes"/>
      <point x="751" y="192"/>
      <point x="765" y="68"/>
      <point x="769" y="20" type="curve"/>
      <point x="563" y="700" type="line"/>
      <point x="252" y="700" type="line"/>
      <point x="252" y="-100" type="line"/>
      <point x="447" y="-100" type="line"/>
      <point x="447" y="264" type="line" smooth="yes"/>
      <point x="447" y="392"/>
      <point x="433" y="534"/>
    </contour>
  </outline>
</glyph>
<glyph name="fl" format="2">
  <advance width="1200"/>
  <unicode hex="FB02"/>
  <outline>
    <contour>
      <point x="1214" y="6" type="curve"/>
      <point x="1152" y="232" type="line"/>
      <point x="1130" y="223"/>
      <point x="1104" y="215"/>
      <point x="1079" y="215" type="curve" smooth="yes"/>
      <point x="1035" y="215"/>
      <point x="1006" y="238"/>
      <point x="1006" y="312" type="curve" smooth="yes"/>
      <point x="1006" y="1515" type="line"/>
      <point x="790" y="1483" type="line"/>
      <point x="726" y="1503"/>
      <point x="655" y="1517"/>
      <point x="579" y="1517" type="curve" smooth="yes"/>
      <point x="304" y="1517"/>
      <point x="154" y="1358"/>
      <point x="154" y="1149" type="curve" smooth="yes"/>
      <point x="154" y="1062" type="line"/>
      <point x="12" y="1062" type="line"/>
      <point x="12" y="842" type="line"/>
      <point x="154" y="842" type="line"/>
      <point x="154" y="0" type="line"/>
      <point x="458" y="0" type="line"/>
      <point x="458" y="842" type="line"/>
      <point x="591" y="842" type="line"/>
      <point x="624" y="1062" type="line"/>
      <point x="458" y="1062" type="line"/>
      <point x="458" y="1137" type="line" smooth="yes"/>
      <point x="458" y="1242"/>
      <point x="501" y="1290"/>
      <point x="610" y="1290" type="curve" smooth="yes"/>
      <point x="643" y="1290"/>
      <point x="673" y="1286"/>
      <point x="702" y="1278" type="curve"/>
      <point x="702" y="285" type="line" smooth="yes"/>
      <point x="702" y="73"/>
      <point x="814" y="-34"/>
      <point x="1008" y="-34" type="curve" smooth="yes"/>
      <point x="1092" y="-34"/>
      <point x="1160" y="-16"/>
    </contour>
  </outline>
</glyph>
<glyph name="_part.arrowhead1" format="2">
  <advance width="1200"/>
  <outline>
    <contour>
      <point x="598" y="1298" type="line"/>
      <point x="391" y="1120" type="line"/>
      <point x="531" y="968" type="line" smooth="yes"/>
      <point x="614" y="879"/>
      <point x="686" y="808"/>
      <point x="771" y="755" type="curve"/>
      <point x="768" y="497" type="line"/>
      <point x="686" y="442"/>
      <point x="611" y="373"/>
      <point x="531" y="284" type="curve" smooth="yes"/>
      <point x="391" y="132" type="line"/>
      <point x="598" y="-46" type="line"/>
      <point x="1203" y="626" type="line"/>
    </contour>
  </outline>
</glyph>
<glyph name="_part.brackets" format="2">
  <advance width="1200"/>
  <outline>
    <contour>
      <point x="688" y="1646" type="line"/>
      <point x="-1888" y="1646" type="line"/>
      <point x="-1888" y="-246" type="line"/>
      <point x="688" y="-246" type="line"/>
    </contour>
    <contour>
      <point x="390" y="-10" type="line"/>
      <point x="-1590" y="-12" type="line"/>
      <point x="-1590" y="1410" type="line"/>
      <point x="390" y="1410" type="line"/>
    </contour>
  </outline>
</glyph>
<glyph name="_part.dot" format="2">
  <advance width="1200"/>
  <outline>
    <contour>
      <point x="600" y="328" type="curve" smooth="yes"/>
      <point x="499" y="328"/>
      <point x="419" y="246"/>
      <point x="419" y="147" type="curve" smooth="yes"/>
      <point x="419" y="48"/>
      <point x="499" y="-34"/>
      <point x="600" y="-34" type="curve" smooth="yes"/>
      <point x="699" y="-34"/>
      <point x="781" y="48"/>
      <point x="781" y="147" type="curve" smooth="yes"/>
      <point x="781" y="246"/>
      <point x="699" y="328"/>
    </contour>
  </outline>
</glyph>
<glyph name="asciitilde_equal.liga" format="2">
  <advance width="1200"/>
  <outline>
    <contour>
      <point x="754" y="535" type="line"/>
      <point x="-754" y="535" type="line"/>
      <point x="-754" y="290" type="line"/>
      <point x="754" y="290" type="line"/>
    </contour>
    <contour>
      <point x="-304" y="1084" type="curve" smooth="yes"/>
      <point x="-530" y="1084"/>
      <point x="-675" y="934"/>
      <point x="-757" y="767" type="curve"/>
      <point x="-580" y="651" type="line"/>
      <point x="-528" y="747"/>
      <point x="-436" y="807"/>
      <point x="-312" y="807" type="curve" smooth="yes"/>
      <point x="-132" y="807"/>
      <point x="-24" y="607"/>
      <point x="225" y="607" type="curve" smooth="yes"/>
      <point x="451" y="607"/>
      <point x="672" y="737"/>
      <point x="757" y="923" type="curve"/>
      <point x="580" y="1040" type="line"/>
      <point x="526" y="938"/>
      <point x="357" y="883"/>
      <point x="233" y="883" type="curve" smooth="yes"/>
      <point x="55" y="883"/>
      <point x="-48" y="1084"/>
    </contour>
  </outline>
</glyph>
<glyph name="asterisk.rem" format="2">
  <advance width="1200"/>
  <outline>
    <contour>
      <point x="735" y="1062" type="line"/>
      <point x="463" y="1062" type="line"/>
      <point x="507" y="761" type="line"/>
      <point x="234" y="889" type="line"/>
      <point x="155" y="639" type="line"/>
      <point x="450" y="587" type="line"/>
      <point x="242" y="364" type="line"/>
      <point x="459" y="206" type="line"/>
      <point x="598" y="476" type="line"/>
      <point x="743" y="208" type="line"/>
      <point x="961" y="366" type="line"/>
      <point x="748" y="585" type="line"/>
      <point x="1045" y="639" type="line"/>
      <point x="964" y="889" type="line"/>
      <point x="691" y="759" type="line"/>
    </contour>
  </outline>
</glyph>
<glyph name="braceleft_bar.liga" format="2">
  <advance width="1200"/>
  <outline>
    <contour>
      <point x="-245" y="1647" type="line"/>
      <point x="-613" y="1647"/>
      <point x="-684" y="1536"/>
      <point x="-688" y="1261" type="curve" smooth="yes"/>
      <point x="-692" y="1025" type="line" smooth="yes"/>
      <point x="-694" y="873"/>
      <point x="-798" y="828"/>
      <point x="-967" y="828" type="curve"/>
      <point x="-967" y="572" type="line"/>
      <point x="-796" y="572"/>
      <point x="-692" y="527"/>
      <point x="-692" y="375" type="curve" smooth="yes"/>
      <point x="-692" y="122" type="line" smooth="yes"/>
      <point x="-692" y="-150"/>
      <point x="-613" y="-247"/>
      <point x="-245" y="-247" type="curve"/>
      <point x="136" y="-247" type="line"/>
      <point x="136" y="-14" type="line"/>
      <point x="-245" y="-14" type="line"/>
      <point x="-365" y="-14"/>
      <point x="-400" y="13"/>
      <point x="-400" y="113" type="curve" smooth="yes"/>
      <point x="-400" y="362" type="line" smooth="yes"/>
      <point x="-400" y="590"/>
      <point x="-497" y="668"/>
      <point x="-711" y="700" type="curve"/>
      <point x="-508" y="730"/>
      <point x="-404" y="812"/>
      <point x="-400" y="1038" type="curve" smooth="yes"/>
      <point x="-396" y="1285" type="line" smooth="yes"/>
      <point x="-394" y="1385"/>
      <point x="-367" y="1412"/>
      <point x="-245" y="1412" type="curve"/>
      <point x="136" y="1412" type="line"/>
      <point x="136" y="1647" type="line"/>
    </contour>
    <contour>
      <point x="726" y="1647" type="line"/>
      <point x="432" y="1647" type="line"/>
      <point x="432" y="-247" type="line"/>
      <point x="726" y="-247" type="line"/>
    </contour>
  </outline>
</glyph>
<glyph name="colon_colon_equal.liga" format="2">
  <advance width="1200"/>
  <outline>
    <contour>
      <point x="954" y="956" type="line"/>
      <point x="-428" y="956" type="line"/>
      <point x="-428" y="709" type="line"/>
      <point x="954" y="709" type="line"/>
    </contour>
    <contour>
      <point x="954" y="535" type="line"/>
      <point x="-428" y="535" type="line"/>
      <point x="-428" y="290" type="line"/>
      <point x="954" y="290" type="line"/>
    </contour>
    <component base="colon_colon.liga" xOffset="-1414" yOffset="81"/>
  </outline>
</glyph>
<glyph name="colon_greater.liga" format="2">
  <advance width="1200"/>
  <outline>
    <contour>
      <point x="-7" y="1264" type="line"/>
      <point x="-7" y="981" type="line"/>
      <point x="687" y="628" type="line"/>
      <point x="-7" y="274" type="line"/>
      <point x="-7" y="-14" type="line"/>
      <point x="1009" y="515" type="line"/>
      <point x="1009" y="741" type="line"/>
    </contour>
    <component base="colon" xOffset="-1260" yOffset="97"/>
  </outline>
</glyph>
<glyph name="descTail-cy.case" format="2">
  <advance width="1200"/>
  <anchor x="336" y="0" name="_bottom"/>
  <anchor x="-73" y="0" name="_bottomleft"/>
  <anchor x="350" y="0" name="_bottomright"/>
  <outline>
    <contour>
      <point x="510" y="304" type="line"/>
      <point x="71" y="304" type="line"/>
      <point x="75" y="0" type="line"/>
      <point x="121" y="0" type="line"/>
      <point x="41" y="-349" type="line"/>
      <point x="312" y="-349" type="line"/>
    </contour>
  </outline>
</glyph>
<glyph name="eight.dnom" format="2">
  <advance width="1200"/>
  <outline>
    <contour>
      <point x="896" y="486" type="curve" smooth="yes"/>
      <point x="896" y="576"/>
      <point x="792" y="654"/>
      <point x="600" y="654" type="curve" smooth="yes"/>
      <point x="409" y="654"/>
      <point x="302" y="576"/>
      <point x="302" y="484" type="curve" smooth="yes"/>
      <point x="302" y="412"/>
      <point x="348" y="376"/>
      <point x="423" y="340" type="curve"/>
      <point x="319" y="312"/>
      <point x="270" y="266"/>
      <point x="270" y="184" type="curve" smooth="yes"/>
      <point x="270" y="68"/>
      <point x="377" y="-12"/>
      <point x="594" y="-12" type="curve" smooth="yes"/>
      <point x="813" y="-12"/>
      <point x="930" y="74"/>
      <point x="930" y="188" type="curve" smooth="yes"/>
      <point x="930" y="276"/>
      <point x="872" y="322"/>
      <point x="765" y="354" type="curve"/>
      <point x="847" y="379"/>
      <point x="896" y="414"/>
    </contour>
    <contour>
      <point x="702" y="192" type="curve" smooth="yes"/>
      <point x="702" y="162"/>
      <point x="665" y="143"/>
      <point x="600" y="143" type="curve" smooth="yes"/>
      <point x="533" y="143"/>
      <point x="496" y="161"/>
      <point x="496" y="200" type="curve" smooth="yes"/>
      <point x="496" y="226"/>
      <point x="521" y="250"/>
      <point x="566" y="269" type="curve"/>
      <point x="659" y="247"/>
      <point x="702" y="230"/>
    </contour>
    <contour>
      <point x="526" y="474" type="curve" smooth="yes"/>
      <point x="526" y="495"/>
      <point x="549" y="513"/>
      <point x="600" y="513" type="curve" smooth="yes"/>
      <point x="651" y="513"/>
      <point x="676" y="493"/>
      <point x="676" y="472" type="curve" smooth="yes"/>
      <point x="676" y="448"/>
      <point x="655" y="436"/>
      <point x="614" y="415" type="curve"/>
      <point x="551" y="434"/>
      <point x="526" y="450"/>
    </contour>
  </outline>
</glyph>
<glyph name="equal_equal_equal.liga" format="2">
  <advance width="1200"/>
  <outline>
    <contour>
      <point x="1054" y="1169" type="line"/>
      <point x="-2254" y="1169" type="line"/>
      <point x="-2254" y="922" type="line"/>
      <point x="1054" y="922" type="line"/>
    </contour>
    <contour>
      <point x="1054" y="330" type="line"/>
      <point x="-2254" y="330" type="line"/>
      <point x="-2254" y="84" type="line"/>
      <point x="1054" y="84" type="line"/>
    </contour>
    <contour>
      <point x="1054" y="751" type="line"/>
      <point x="-2254" y="751" type="line"/>
      <point x="-2254" y="503" type="line"/>
      <point x="1054" y="503" type="line"/>
    </contour>
  </outline>
</glyph>
<glyph name="four.dnom" format="2">
  <advance width="1200"/>
  <outline>
    <contour>
      <point x="841" y="112" type="line"/>
      <point x="927" y="112" type="line"/>
      <point x="927" y="261" type="line"/>
      <point x="841" y="261" type="line"/>
      <point x="841" y="420" type="line"/>
      <point x="666" y="420" type="line"/>
      <point x="636" y="261" type="line"/>
      <point x="505" y="261" type="line"/>
      <point x="702" y="596" type="line"/>
      <point x="511" y="660" type="line"/>
      <point x="271" y="243" type="line"/>
      <point x="271" y="112" type="line"/>
      <point x="632" y="112" type="line"/>
      <point x="632" y="0" type="line"/>
      <point x="841" y="0" type="line"/>
    </contour>
  </outline>
</glyph>
<glyph name="greater_greater_equal.liga" format="2">
  <advance width="1200"/>
  <outline>
    <contour>
      <point x="854" y="956" type="line"/>
      <point x="-1022" y="956" type="line"/>
      <point x="-1435" y="1415" type="line"/>
      <point x="-1642" y="1237" type="line"/>
      <point x="-1160" y="709" type="line"/>
      <point x="854" y="709" type="line"/>
    </contour>
    <contour>
      <point x="854" y="535" type="line"/>
      <point x="-1160" y="535" type="line"/>
      <point x="-1642" y="5" type="line"/>
      <point x="-1435" y="-173" type="line"/>
      <point x="-1022" y="290" type="line"/>
      <point x="854" y="290" type="line"/>
    </contour>
    <component base="_part.arrowhead" xOffset="-2400" yOffset="-4"/>
  </outline>
</glyph>
<glyph name="hookHELPER.case" format="2">
  <advance width="1200"/>
  <outline>
    <contour>
      <point x="389" y="-453" type="curve" smooth="yes"/>
      <point x="643" y="-453"/>
      <point x="790" y="-314"/>
      <point x="790" y="-52" type="curve" smooth="yes"/>
      <point x="790" y="2" type="line"/>
      <point x="462" y="2" type="line"/>
      <point x="462" y="-79" type="line" smooth="yes"/>
      <point x="462" y="-178"/>
      <point x="424" y="-214"/>
      <point x="358" y="-214" type="curve" smooth="yes"/>
      <point x="305" y="-214"/>
      <point x="275" y="-198"/>
      <point x="239" y="-179" type="curve"/>
      <point x="118" y="-364" type="line"/>
      <point x="188" y="-415"/>
      <point x="266" y="-453"/>
    </contour>
  </outline>
</glyph>
<glyph name="hyphen.rem" format="2">
  <advance width="1200"/>
  <outline>
    <contour>
      <point x="217" y="503" type="line"/>
      <point x="983" y="503" type="line"/>
      <point x="983" y="749" type="line"/>
      <point x="217" y="749" type="line"/>
    </contour>
  </outline>
</glyph>
<glyph name="hyphen_hyphen_hyphen.liga" format="2">
  <advance width="1200"/>
  <outline>
    <contour>
      <point x="-2122" y="503" type="line"/>
      <point x="-1196" y="503" type="line"/>
      <point x="-1196" y="749" type="line"/>
      <point x="-2122" y="749" type="line"/>
    </contour>
    <contour>
      <point x="-1063" y="503" type="line"/>
      <point x="-137" y="503" type="line"/>
      <point x="-137" y="749" type="line"/>
      <point x="-1063" y="749" type="line"/>
    </contour>
    <contour>
      <point x="-4" y="503" type="line"/>
      <point x="922" y="503" type="line"/>
      <point x="922" y="749" type="line"/>
      <point x="-4" y="749" type="line"/>
    </contour>
  </outline>
</glyph>
<glyph name="less_dollar.liga" format="2">
  <advance width="1200"/>
  <outline>
    <contour>
      <point x="498" y="1712" type="line"/>
      <point x="337" y="1712" type="line"/>
      <point x="337" y="1468" type="line"/>
      <point x="89" y="1442"/>
      <point x="-66" y="1239"/>
      <point x="-66" y="1023" type="curve" smooth="yes"/>
      <point x="-66" y="833"/>
      <point x="48" y="711"/>
      <point x="337" y="616" type="curve"/>
      <point x="337" y="118" type="line"/>
      <point x="218" y="125"/>
      <point x="97" y="157"/>
      <point x="-79" y="256" type="curve"/>
      <point x="-79" y="-58" type="line"/>
      <point x="61" y="-141"/>
      <point x="139" y="-169"/>
      <point x="337" y="-182" type="curve"/>
      <point x="337" y="-324" type="line"/>
      <point x="498" y="-324" type="line"/>
      <point x="498" y="-168" type="line"/>
      <point x="818" y="-140"/>
      <point x="971" y="143"/>
      <point x="971" y="368" type="curve" smooth="yes"/>
      <point x="971" y="583"/>
      <point x="766" y="755"/>
      <point x="498" y="845" type="curve"/>
      <point x="498" y="1194" type="line"/>
      <point x="580" y="1188"/>
      <point x="724" y="1122"/>
      <point x="939" y="998" type="curve"/>
      <point x="939" y="1312" type="line"/>
      <point x="764" y="1425"/>
      <point x="662" y="1456"/>
      <point x="498" y="1470" type="curve"/>
    </contour>
    <contour>
      <point x="498" y="552" type="line"/>
      <point x="597" y="502"/>
      <point x="676" y="435"/>
      <point x="676" y="323" type="curve" smooth="yes"/>
      <point x="676" y="232"/>
      <point x="579" y="138"/>
      <point x="498" y="120" type="curve"/>
    </contour>
    <contour>
      <point x="337" y="1192" type="curve"/>
      <point x="337" y="906" type="line"/>
      <point x="231" y="955"/>
      <point x="217" y="993"/>
      <point x="217" y="1060" type="curve" smooth="yes"/>
      <point x="217" y="1123"/>
      <point x="256" y="1178"/>
    </contour>
    <contour>
      <point x="-155" y="1268" type="line"/>
      <point x="-1001" y="739" type="line"/>
      <point x="-1001" y="515" type="line"/>
      <point x="-79" y="-58" type="line"/>
      <point x="-79" y="256" type="line"/>
      <point x="-728" y="628" type="line"/>
      <point x="-218" y="928" type="line"/>
    </contour>
  </outline>
</glyph>
<glyph name="less_exclam_hyphen_hyphen.liga" format="2">
  <advance width="1200"/>
  <outline>
    <contour>
      <point x="-2998" y="1298" type="line"/>
      <point x="-3603" y="626" type="line"/>
      <point x="-2998" y="-46" type="line"/>
      <point x="-2791" y="132" type="line"/>
      <point x="-2931" y="284" type="line" smooth="yes"/>
      <point x="-3011" y="373"/>
      <point x="-3086" y="442"/>
      <point x="-3168" y="497" type="curve"/>
      <point x="-2749" y="497" type="line"/>
      <point x="-2749" y="755" type="line"/>
      <point x="-3171" y="755" type="line"/>
      <point x="-3086" y="808"/>
      <point x="-3014" y="879"/>
      <point x="-2931" y="968" type="curve" smooth="yes"/>
      <point x="-2791" y="1120" type="line"/>
    </contour>
    <contour>
      <point x="-2022" y="503" type="line"/>
      <point x="983" y="503" type="line"/>
      <point x="983" y="749" type="line"/>
      <point x="-2022" y="749" type="line"/>
    </contour>
    <component base="exclam" xOffset="-3000"/>
  </outline>
</glyph>
<glyph name="less_slash.liga" format="2">
  <advance width="1200"/>
  <outline>
    <contour>
      <point x="-277" y="1225" type="line"/>
      <point x="-1061" y="739" type="line"/>
      <point x="-1061" y="515" type="line"/>
      <point x="-25" y="-129" type="line"/>
      <point x="117" y="96" type="line"/>
      <point x="-788" y="628" type="line"/>
      <point x="-139" y="1007" type="line"/>
    </contour>
    <contour>
      <point x="45" y="-347" type="line"/>
      <point x="943" y="1521" type="line"/>
      <point x="698" y="1634" type="line"/>
      <point x="-202" y="-234" type="line"/>
    </contour>
  </outline>
</glyph>
<glyph name="numbersign_colon.liga" format="2">
  <advance width="1200"/>
  <outline>
    <contour>
      <point x="530" y="1141" type="line"/>
      <point x="476" y="755" type="line"/>
      <point x="868" y="755" type="line"/>
      <point x="922" y="1141" type="line"/>
    </contour>
    <contour>
      <point x="450" y="551" type="line"/>
      <point x="396" y="165" type="line"/>
      <point x="788" y="165" type="line"/>
      <point x="842" y="551" type="line"/>
    </contour>
    <component base="numbersign" xOffset="-1000"/>
  </outline>
</glyph>
<glyph name="numbersign_numbersign.liga.rem" format="2">
  <advance width="1200"/>
  <outline>
    <contour>
      <point x="1031" y="893" type="line"/>
      <point x="1031" y="1102" type="line"/>
      <point x="810" y="1102" type="line"/>
      <point x="848" y="1386" type="line"/>
      <point x="587" y="1386" type="line"/>
      <point x="549" y="1102" type="line"/>
      <point x="184" y="1102" type="line"/>
      <point x="222" y="1386" type="line"/>
      <point x="-40" y="1386" type="line"/>
      <point x="-79" y="1102" type="line"/>
      <point x="-442" y="1102" type="line"/>
      <point x="-403" y="1386" type="line"/>
      <point x="-666" y="1386" type="line"/>
      <point x="-702" y="1102" type="line"/>
      <point x="-955" y="1102" type="line"/>
      <point x="-955" y="893" type="line"/>
      <point x="-730" y="893" type="line"/>
      <point x="-782" y="497" type="line"/>
      <point x="-1029" y="497" type="line"/>
      <point x="-1029" y="289" type="line"/>
      <point x="-810" y="289" type="line"/>
      <point x="-846" y="0" type="line"/>
      <point x="-585" y="0" type="line"/>
      <point x="-547" y="289" type="line"/>
      <point x="-184" y="289" type="line"/>
      <point x="-222" y="0" type="line"/>
      <point x="40" y="0" type="line"/>
      <point x="79" y="289" type="line"/>
      <point x="443" y="289" type="line"/>
      <point x="405" y="0" type="line"/>
      <point x="666" y="0" type="line"/>
      <point x="704" y="289" type="line"/>
      <point x="957" y="289" type="line"/>
      <point x="957" y="497" type="line"/>
      <point x="732" y="497" type="line"/>
      <point x="782" y="893" type="line"/>
    </contour>
    <contour>
      <point x="-158" y="497" type="line"/>
      <point x="-521" y="497" type="line"/>
      <point x="-469" y="893" type="line"/>
      <point x="-106" y="893" type="line"/>
    </contour>
    <contour>
      <point x="469" y="497" type="line"/>
      <point x="104" y="497" type="line"/>
      <point x="156" y="893" type="line"/>
      <point x="521" y="893" type="line"/>
    </contour>
  </outline>
</glyph>
<glyph name="numbersign_numbersign_numbersign.liga.rem" format="2">
  <advance width="1200"/>
  <outline>
    <contour>
      <point x="879" y="893" type="line"/>
      <point x="879" y="1102" type="line"/>
      <point x="652" y="1102" type="line"/>
      <point x="692" y="1386" type="line"/>
      <point x="430" y="1386" type="line"/>
      <point x="391" y="1102" type="line"/>
      <point x="-60" y="1102" type="line"/>
      <point x="-20" y="1386" type="line"/>
      <point x="-282" y="1386" type="line"/>
      <point x="-321" y="1102" type="line"/>
      <point x="-770" y="1102" type="line"/>
      <point x="-730" y="1386" type="line"/>
      <point x="-992" y="1386" type="line"/>
      <point x="-1031" y="1102" type="line"/>
      <point x="-1480" y="1102" type="line"/>
      <point x="-1440" y="1386" type="line"/>
      <point x="-1702" y="1386" type="line"/>
      <point x="-1741" y="1102" type="line"/>
      <point x="-2003" y="1102" type="line"/>
      <point x="-2003" y="893" type="line"/>
      <point x="-1768" y="893" type="line"/>
      <point x="-1823" y="497" type="line"/>
      <point x="-2077" y="497" type="line"/>
      <point x="-2077" y="289" type="line"/>
      <point x="-1850" y="289" type="line"/>
      <point x="-1888" y="0" type="line"/>
      <point x="-1626" y="0" type="line"/>
      <point x="-1587" y="289" type="line"/>
      <point x="-1140" y="289" type="line"/>
      <point x="-1178" y="0" type="line"/>
      <point x="-916" y="0" type="line"/>
      <point x="-877" y="289" type="line"/>
      <point x="-430" y="289" type="line"/>
      <point x="-468" y="0" type="line"/>
      <point x="-206" y="0" type="line"/>
      <point x="-167" y="289" type="line"/>
      <point x="282" y="289" type="line"/>
      <point x="244" y="0" type="line"/>
      <point x="506" y="0" type="line"/>
      <point x="543" y="289" type="line"/>
      <point x="805" y="289" type="line"/>
      <point x="805" y="497" type="line"/>
      <point x="572" y="497" type="line"/>
      <point x="624" y="893" type="line"/>
    </contour>
    <contour>
      <point x="-1113" y="497" type="line"/>
      <point x="-1560" y="497" type="line"/>
      <point x="-1508" y="893" type="line"/>
      <point x="-1058" y="893" type="line"/>
    </contour>
    <contour>
      <point x="-403" y="497" type="line"/>
      <point x="-850" y="497" type="line"/>
      <point x="-798" y="893" type="line"/>
      <point x="-348" y="893" type="line"/>
    </contour>
    <contour>
      <point x="309" y="497" type="line"/>
      <point x="-140" y="497" type="line"/>
      <point x="-88" y="893" type="line"/>
      <point x="364" y="893" type="line"/>
    </contour>
  </outline>
</glyph>
<glyph name="one.tosf" format="2">
  <advance width="1200"/>
  <outline>
    <contour>
      <point x="840" y="1144" type="line"/>
      <point x="560" y="1144" type="line"/>
      <point x="128" y="884" type="line"/>
      <point x="259" y="670" type="line"/>
      <point x="532" y="829" type="line"/>
      <point x="532" y="201" type="line"/>
      <point x="840" y="201" type="line"/>
    </contour>
    <contour>
      <point x="1089" y="235" type="line"/>
      <point x="213" y="235" type="line"/>
      <point x="213" y="0" type="line"/>
      <point x="1089" y="0" type="line"/>
    </contour>
  </outline>
</glyph>
<glyph name="parenright.dnom" format="2">
  <advance width="1200"/>
  <outline>
    <contour>
      <point x="600" y="347" type="curve" smooth="yes"/>
      <point x="600" y="163"/>
      <point x="537" y="68"/>
      <point x="433" y="-84" type="curve"/>
      <point x="554" y="-193" type="line"/>
      <point x="719" y="-29"/>
      <point x="824" y="117"/>
      <point x="824" y="347" type="curve" smooth="yes"/>
      <point x="824" y="580"/>
      <point x="719" y="725"/>
      <point x="554" y="887" type="curve"/>
      <point x="433" y="780" type="line"/>
      <point x="537" y="628"/>
      <point x="600" y="536"/>
    </contour>
  </outline>
</glyph>
<glyph name="period_period_equal.liga" format="2">
  <advance width="1200"/>
  <outline>
    <contour>
      <point x="1054" y="956" type="line"/>
      <point x="-268" y="956" type="line"/>
      <point x="-268" y="709" type="line"/>
      <point x="1054" y="709" type="line"/>
    </contour>
    <contour>
      <point x="1054" y="535" type="line"/>
      <point x="-268" y="535" type="line"/>
      <point x="-268" y="290" type="line"/>
      <point x="1054" y="290" type="line"/>
    </contour>
    <component base="bullet" xOffset="-2400" yOffset="-66"/>
    <component base="bullet" xOffset="-1500" yOffset="-66"/>
  </outline>
</glyph>
<glyph name="plus.rem" format="2">
  <advance width="1200"/>
  <outline>
    <contour>
      <point x="731" y="1058" type="line"/>
      <point x="467" y="1058" type="line"/>
      <point x="467" y="747" type="line"/>
      <point x="166" y="747" type="line"/>
      <point x="166" y="503" type="line"/>
      <point x="467" y="503" type="line"/>
      <point x="467" y="192" type="line"/>
      <point x="731" y="192" type="line"/>
      <point x="731" y="503" type="line"/>
      <point x="1034" y="503" type="line"/>
      <point x="1034" y="747" type="line"/>
      <point x="731" y="747" type="line"/>
    </contour>
  </outline>
</glyph>
<glyph name="plus_plus_plus.liga" format="2">
  <advance width="1200"/>
  <outline>
    <contour>
      <point x="-469" y="503" type="line"/>
      <point x="267" y="503" type="line"/>
      <point x="267" y="92" type="line"/>
      <point x="531" y="92" type="line"/>
      <point x="531" y="503" type="line"/>
      <point x="934" y="503" type="line"/>
      <point x="934" y="747" type="line"/>
      <point x="531" y="747" type="line"/>
      <point x="531" y="1158" type="line"/>
      <point x="267" y="1158" type="line"/>
      <point x="267" y="747" type="line"/>
      <point x="-469" y="747" type="line"/>
      <point x="-469" y="1158" type="line"/>
      <point x="-733" y="1158" type="line"/>
      <point x="-733" y="747" type="line"/>
      <point x="-1469" y="747" type="line"/>
      <point x="-1469" y="1158" type="line"/>
      <point x="-1733" y="1158" type="line"/>
      <point x="-1733" y="747" type="line"/>
      <point x="-2134" y="747" type="line"/>
      <point x="-2134" y="503" type="line"/>
      <point x="-1733" y="503" type="line"/>
      <point x="-1733" y="92" type="line"/>
      <point x="-1469" y="92" type="line"/>
      <point x="-1469" y="503" type="line"/>
      <point x="-733" y="503" type="line"/>
      <point x="-733" y="92" type="line"/>
      <point x="-469" y="92" type="line"/>
    </contour>
  </outline>
</glyph>
<glyph name="questiondown.case" format="2">
  <advance width="1200"/>
  <outline>
    <contour>
      <point x="634" y="1421" type="curve" smooth="yes"/>
      <point x="533" y="1421"/>
      <point x="454" y="1338"/>
      <point x="454" y="1239" type="curve" smooth="yes"/>
      <point x="454" y="1141"/>
      <point x="533" y="1060"/>
      <point x="634" y="1060" type="curve" smooth="yes"/>
      <point x="734" y="1060"/>
      <point x="815" y="1141"/>
      <point x="815" y="1239" type="curve" smooth="yes"/>
      <point x="815" y="1338"/>
      <point x="734" y="1421"/>
    </contour>
    <contour>
      <point x="781" y="887" type="line"/>
      <point x="494" y="887" type="line"/>
      <point x="494" y="846" type="line" smooth="yes"/>
      <point x="494" y="601"/>
      <point x="122" y="625"/>
      <point x="122" y="300" type="curve" smooth="yes"/>
      <point x="122" y="122"/>
      <point x="278" y="-34"/>
      <point x="581" y="-34" type="curve" smooth="yes"/>
      <point x="791" y="-34"/>
      <point x="949" y="48"/>
      <point x="1063" y="180" type="curve"/>
      <point x="863" y="336" type="line"/>
      <point x="791" y="255"/>
      <point x="702" y="215"/>
      <point x="610" y="215" type="curve" smooth="yes"/>
      <point x="517" y="215"/>
      <point x="452" y="256"/>
      <point x="452" y="329" type="curve" smooth="yes"/>
      <point x="452" y="495"/>
      <point x="781" y="483"/>
      <point x="781" y="825" type="curve" smooth="yes"/>
    </contour>
  </outline>
</glyph>
<glyph name="two.dnom" format="2">
  <advance width="1200"/>
  <outline>
    <contour>
      <point x="886" y="446" type="curve" smooth="yes"/>
      <point x="886" y="558"/>
      <point x="788" y="654"/>
      <point x="602" y="654" type="curve" smooth="yes"/>
      <point x="474" y="654"/>
      <point x="370" y="610"/>
      <point x="290" y="522" type="curve"/>
      <point x="431" y="418" type="line"/>
      <point x="478" y="473"/>
      <point x="516" y="489"/>
      <point x="567" y="489" type="curve" smooth="yes"/>
      <point x="618" y="489"/>
      <point x="648" y="459"/>
      <point x="648" y="418" type="curve" smooth="yes"/>
      <point x="648" y="352"/>
      <point x="605" y="306"/>
      <point x="314" y="147" type="curve"/>
      <point x="314" y="0" type="line"/>
      <point x="884" y="0" type="line"/>
      <point x="909" y="165" type="line"/>
      <point x="600" y="165" type="line"/>
      <point x="821" y="262"/>
      <point x="886" y="332"/>
    </contour>
  </outline>
</glyph>
<glyph name="underscore_bar_underscore.liga" format="2">
  <advance width="1200"/>
  <outline>
    <contour>
      <point x="-2000" y="-372" type="line"/>
      <point x="800" y="-372" type="line"/>
      <point x="800" y="-124" type="line"/>
      <point x="-2000" y="-124" type="line"/>
    </contour>
    <contour>
      <point x="-454" y="1454" type="line"/>
      <point x="-748" y="1454" type="line"/>
      <point x="-748" y="-212" type="line"/>
      <point x="-454" y="-212" type="line"/>
    </contour>
  </outline>
</glyph>
<glyph name="zero.dnom" format="2">
  <advance width="1200"/>
  <outline>
    <contour>
      <point x="684" y="320" type="curve" smooth="yes"/>
      <point x="684" y="189"/>
      <point x="661" y="147"/>
      <point x="602" y="147" type="curve" smooth="yes"/>
      <point x="543" y="147"/>
      <point x="516" y="198"/>
      <point x="516" y="320" type="curve" smooth="yes"/>
      <point x="516" y="447"/>
      <point x="539" y="495"/>
      <point x="602" y="495" type="curve" smooth="yes"/>
      <point x="661" y="495"/>
      <point x="684" y="457"/>
    </contour>
    <contour>
      <point x="916" y="320" type="curve" smooth="yes"/>
      <point x="916" y="535"/>
      <point x="790" y="654"/>
      <point x="602" y="654" type="curve" smooth="yes"/>
      <point x="410" y="654"/>
      <point x="284" y="529"/>
      <point x="284" y="320" type="curve" smooth="yes"/>
      <point x="284" y="105"/>
      <point x="410" y="-12"/>
      <point x="602" y="-12" type="curve" smooth="yes"/>
      <point x="790" y="-12"/>
      <point x="916" y="105"/>
    </contour>
  </outline>
</glyph>
<glyph name="zero.zero" format="2">
  <advance width="1200"/>
  <outline>
    <contour>
      <point x="600" y="1421" type="curve" smooth="yes"/>
      <point x="267" y="1421"/>
      <point x="99" y="1152"/>
      <point x="99" y="696" type="curve" smooth="yes"/>
      <point x="99" y="238"/>
      <point x="267" y="-34"/>
      <point x="600" y="-34" type="curve" smooth="yes"/>
      <point x="931" y="-34"/>
      <point x="1101" y="238"/>
      <point x="1101" y="696" type="curve" smooth="yes"/>
      <point x="1101" y="1152"/>
      <point x="931" y="1421"/>
    </contour>
    <contour>
      <point x="600" y="1192" type="curve" smooth="yes"/>
      <point x="727" y="1192"/>
      <point x="792" y="1065"/>
      <point x="792" y="696" type="curve" smooth="yes"/>
      <point x="792" y="325"/>
      <point x="731" y="194"/>
      <point x="600" y="194" type="curve" smooth="yes"/>
      <point x="471" y="194"/>
      <point x="406" y="319"/>
      <point x="406" y="696" type="curve" smooth="yes"/>
      <point x="406" y="1055"/>
      <point x="469" y="1192"/>
    </contour>
    <contour>
      <point x="598" y="820" type="curve" smooth="yes"/>
      <point x="524" y="820"/>
      <point x="468" y="762"/>
      <point x="468" y="690" type="curve" smooth="yes"/>
      <point x="468" y="616"/>
      <point x="524" y="558"/>
      <point x="598" y="558" type="curve" smooth="yes"/>
      <point x="674" y="558"/>
      <point x="730" y="616"/>
      <point x="730" y="690" type="curve" smooth="yes"/>
      <point x="730" y="762"/>
      <point x="674" y="820"/>
    </contour>
  </outline>
</glyph>
